<svg width="25" height="28" viewBox="0 0 25 28" fill="none" xmlns="http://www.w3.org/2000/svg">
<path opacity="0.12" d="M0.5 7.7C0.5 5.17976 0.5 3.91965 0.990471 2.95704C1.4219 2.11031 2.11031 1.4219 2.95704 0.990471C3.91965 0.5 5.17976 0.5 7.7 0.5H17.3C19.8202 0.5 21.0804 0.5 22.043 0.990471C22.8897 1.4219 23.5781 2.11031 24.0095 2.95704C24.5 3.91965 24.5 5.17976 24.5 7.7V27.5L20.375 24.5L16.625 27.5L12.5 24.5L8.375 27.5L4.625 24.5L0.5 27.5V7.7Z" fill="#1D9B5E"/>
<path d="M0.5 7.7C0.5 5.17976 0.5 3.91965 0.990471 2.95704C1.4219 2.11031 2.11031 1.4219 2.95704 0.990471C3.91965 0.5 5.17976 0.5 7.7 0.5H17.3C19.8202 0.5 21.0804 0.5 22.043 0.990471C22.8897 1.4219 23.5781 2.11031 24.0095 2.95704C24.5 3.91965 24.5 5.17976 24.5 7.7V27.5L20.375 24.5L16.625 27.5L12.5 24.5L8.375 27.5L4.625 24.5L0.5 27.5V7.7Z" stroke="#1D9B5E" stroke-linecap="round" stroke-linejoin="round"/>
</svg>
