<svg width="23" height="23" viewBox="0 0 23 23" fill="none" xmlns="http://www.w3.org/2000/svg">
<path opacity="0.12" d="M2.8125 8.25C2.8125 6.67485 2.8125 5.88728 3.11904 5.28565C3.38869 4.75645 3.81895 4.32619 4.34815 4.05654C4.94978 3.75 5.73735 3.75 7.3125 3.75H15.1875C16.7626 3.75 17.5502 3.75 18.1518 4.05654C18.6811 4.32619 19.1113 4.75645 19.381 5.28565C19.6875 5.88728 19.6875 6.67485 19.6875 8.25V9.375H2.8125V8.25Z" fill="#B6B6B6"/>
<path d="M19.6875 10.7812V8.25C19.6875 6.67485 19.6875 5.88728 19.381 5.28565C19.1113 4.75645 18.6811 4.32619 18.1518 4.05654C17.5502 3.75 16.7626 3.75 15.1875 3.75H7.3125C5.73735 3.75 4.94978 3.75 4.34815 4.05654C3.81895 4.32619 3.38869 4.75645 3.11904 5.28565C2.8125 5.88728 2.8125 6.67485 2.8125 8.25V16.125C2.8125 17.7001 2.8125 18.4877 3.11904 19.0893C3.38869 19.6186 3.81895 20.0488 4.34815 20.3185C4.94978 20.625 5.73735 20.625 7.3125 20.625H11.7188M19.6875 9.375H2.8125M15 1.875V5.625M7.5 1.875V5.625M16.875 19.6875V14.0625M14.0625 16.875H19.6875" stroke="#B6B6B6" stroke-width="2" stroke-linecap="round" stroke-linejoin="round"/>
</svg>
