<svg width="381" height="383" viewBox="0 0 381 383" fill="none" xmlns="http://www.w3.org/2000/svg">
<g clip-path="url(#clip0_70_56)">
<path fill-rule="evenodd" clip-rule="evenodd" d="M162.217 0C162.449 0.0126193 162.648 0.186175 162.684 0.424805L165.731 20.7744C187.26 17.5902 209.745 18.5085 232.166 24.1465L237.206 4.17285L237.24 4.08008C237.282 3.99157 237.35 3.91616 237.435 3.86523C237.549 3.79756 237.686 3.77789 237.814 3.81055C262.885 10.1925 285.616 21.2697 305.138 35.9111C305.357 36.0758 305.403 36.3866 305.241 36.6074L293.053 53.1641C311.211 66.6472 326.246 83.5887 337.708 102.674L355.272 92.1689L355.361 92.127C355.453 92.0941 355.554 92.0889 355.651 92.1133C355.779 92.1458 355.891 92.2279 355.959 92.3418C368.74 113.787 377.276 137.708 380.994 162.796C381.033 163.059 380.859 163.307 380.598 163.359L380.419 163.396C380.412 163.397 380.403 163.398 380.395 163.399L366.738 165.45L360.31 166.414C363.481 188.038 362.55 210.696 356.952 233.137L376.825 238.198C377.092 238.266 377.254 238.538 377.187 238.805C370.841 263.982 359.829 286.728 345.322 306.359C345.243 306.466 345.125 306.537 344.994 306.557C344.862 306.576 344.728 306.543 344.622 306.464L328.145 294.218C314.641 312.435 297.755 327.605 278.749 339.116L289.212 356.759C289.353 356.996 289.275 357.301 289.039 357.442C267.704 370.197 243.937 378.878 218.954 382.604C218.682 382.644 218.429 382.457 218.386 382.186L217.665 377.548L217.664 377.544L215.337 361.841C193.807 365.024 171.245 364.08 148.824 358.441L143.784 378.417C143.751 378.546 143.669 378.657 143.555 378.725C143.441 378.792 143.305 378.812 143.176 378.779C118.106 372.397 95.4546 361.338 75.9234 346.697C75.7037 346.533 75.658 346.221 75.8209 346L88.0152 329.451C69.8571 315.959 54.7531 299 43.2906 279.914L25.7271 290.421C25.6132 290.489 25.476 290.509 25.3472 290.477C25.2186 290.444 25.1084 290.361 25.0406 290.247C12.3309 268.821 3.72372 244.882 0.00543772 219.794C-0.0186877 219.631 0.0383595 219.467 0.158758 219.354C0.274146 219.247 0.433247 219.202 0.587469 219.229L6.49274 218.296L6.49665 218.295L20.6881 216.166C17.5168 194.543 18.4389 171.962 24.0543 149.443L4.16559 144.383C3.89835 144.315 3.7358 144.043 3.80329 143.775C10.158 118.599 21.188 95.7715 35.7672 76.166L35.8355 76.0918C36.0088 75.9369 36.2725 75.9194 36.4664 76.0635L52.94 88.3076C66.3746 70.082 83.2361 54.9827 102.25 43.4727L91.7867 25.8311C91.6464 25.5943 91.7236 25.289 91.9595 25.1475C113.295 12.3835 137.134 3.73013 162.117 0.00488281L162.217 0ZM161.77 1.06934C137.265 4.78961 113.876 13.2767 92.9019 25.751L103.363 43.3877C103.503 43.624 103.425 43.9295 103.19 44.0713C83.9705 55.6325 66.9487 70.871 53.4478 89.3027C53.3692 89.4101 53.2503 89.482 53.1187 89.502C52.9872 89.5218 52.8525 89.4885 52.7457 89.4092L36.273 77.166C22.0126 96.4505 11.1954 118.851 4.89802 143.536L24.7828 148.598C25.0494 148.666 25.2114 148.937 25.1441 149.204C19.4104 171.924 18.4855 194.714 21.7476 216.513C21.7884 216.786 21.6005 217.04 21.3277 217.081L6.64509 219.284L6.64411 219.283L1.0738 220.166C4.78863 244.767 13.2295 268.246 25.6461 289.303L43.2037 278.802L43.2935 278.76C43.3857 278.727 43.4863 278.722 43.5826 278.746C43.7111 278.779 43.8223 278.861 43.8902 278.975C55.4023 298.267 70.6476 315.388 89.0103 328.946C89.232 329.11 89.2791 329.423 89.1158 329.646L76.9215 346.191C96.1316 360.513 118.358 371.358 142.937 377.683L147.976 357.715C148.009 357.586 148.092 357.475 148.206 357.407C148.32 357.34 148.456 357.32 148.585 357.353C171.207 363.11 193.98 364.056 215.685 360.78C215.816 360.761 215.951 360.794 216.057 360.873C216.164 360.952 216.235 361.071 216.254 361.202L218.652 377.394L219.297 381.537C243.802 377.817 267.121 369.304 288.096 356.837L277.636 339.201C277.496 338.965 277.574 338.66 277.809 338.519C297.019 326.958 314.068 311.647 327.641 293.223C327.72 293.116 327.839 293.044 327.97 293.024C328.102 293.005 328.236 293.039 328.342 293.118L344.813 305.36C359.005 286.05 369.804 263.727 376.092 239.043L356.225 233.983C355.958 233.915 355.797 233.644 355.864 233.377C361.58 210.738 362.513 187.866 359.251 166.067C359.21 165.795 359.399 165.54 359.671 165.499L366.589 164.461L379.93 162.457C376.219 137.842 367.844 114.368 355.353 93.2852L337.795 103.788C337.682 103.856 337.545 103.876 337.417 103.844C337.288 103.811 337.177 103.729 337.109 103.615C325.596 84.3223 310.422 67.2191 292.06 53.6699C291.838 53.5061 291.791 53.1928 291.955 52.9707L304.139 36.415C284.937 22.0935 262.632 11.2297 238.051 4.90527L233.014 24.875C232.982 25.0036 232.899 25.1137 232.785 25.1816C232.671 25.2495 232.534 25.2699 232.406 25.2373C209.783 19.4795 187.09 18.5601 165.385 21.8359C165.254 21.8557 165.12 21.8219 165.013 21.7432C164.907 21.6643 164.836 21.5462 164.816 21.415L161.77 1.06934Z" fill="#6D8578"/>
<g clip-path="url(#clip1_70_56)">
<path d="M297.804 260.348H82.2163C77.6761 260.348 74 256.652 74 252.097V129.251C74 124.692 77.6804 121 82.2163 121H297.804C302.344 121 306.02 124.696 306.02 129.251V252.097C306.024 256.656 302.344 260.348 297.804 260.348Z" fill="#0AE874"/>
<path d="M306.024 147.319H74V171.367H306.024V147.319Z" fill="#1D9B5E"/>
<path d="M127.143 233.612H93.0286C90.8601 233.612 89.1025 235.378 89.1025 237.555C89.1025 239.733 90.8601 241.498 93.0286 241.498H127.143C129.311 241.498 131.069 239.733 131.069 237.555C131.069 235.382 129.311 233.612 127.143 233.612Z" fill="#D1F5FF"/>
<path d="M179.609 233.612H145.494C143.326 233.612 141.568 235.378 141.568 237.555C141.568 239.733 143.326 241.498 145.494 241.498H179.609C181.777 241.498 183.535 239.733 183.535 237.555C183.535 235.382 181.777 233.612 179.609 233.612Z" fill="#D1F5FF"/>
<path d="M232.07 233.612H197.955C195.787 233.612 194.029 235.378 194.029 237.555C194.029 239.733 195.787 241.498 197.955 241.498H232.07C234.238 241.498 235.996 239.733 235.996 237.555C235.996 235.382 234.238 233.612 232.07 233.612Z" fill="#D1F5FF"/>
<path d="M284.532 233.612H250.417C248.249 233.612 246.491 235.378 246.491 237.555C246.491 239.733 248.249 241.498 250.417 241.498H284.532C286.7 241.498 288.458 239.733 288.458 237.555C288.458 235.378 286.7 233.612 284.532 233.612Z" fill="#D1F5FF"/>
<path d="M91.4576 128.073C89.0647 128.073 87.125 130.021 87.125 132.424V133.951C87.125 136.354 89.0647 138.302 91.4576 138.302C93.8505 138.302 95.7902 136.354 95.7902 133.951V132.424C95.7902 130.021 93.8505 128.073 91.4576 128.073Z" fill="#D1F5FF"/>
<path d="M100.796 133.19C100.796 136.014 103.079 138.307 105.891 138.307H123.95C126.762 138.307 129.044 136.014 129.044 133.19C129.044 130.366 126.762 128.073 123.95 128.073H105.891C103.074 128.073 100.796 130.361 100.796 133.19Z" fill="#D1F5FF"/>
<path d="M98.4242 184.296H121.747C125.487 184.296 128.515 187.337 128.515 191.093V211.287C128.515 215.043 125.487 218.084 121.747 218.084H98.4242C94.6845 218.084 91.6562 215.043 91.6562 211.287V191.093C91.6562 187.342 94.6887 184.296 98.4242 184.296Z" fill="#FF9F34"/>
</g>
</g>
<defs>
<clipPath id="clip0_70_56">
<rect width="381" height="383" fill="white"/>
</clipPath>
<clipPath id="clip1_70_56">
<rect width="233" height="140" fill="white" transform="translate(74 121)"/>
</clipPath>
</defs>
</svg>
