<svg width="21" height="22" viewBox="0 0 21 22" fill="none" xmlns="http://www.w3.org/2000/svg">
<path d="M10.5 16C12 13 16.5 11.0637 16.5 7C16.5 3.68629 13.8137 1 10.5 1C7.18629 1 4.5 3.68629 4.5 7C4.5 11.0637 9 13 10.5 16Z" fill="#E6FFF3" stroke="#85CCAA" stroke-width="2" stroke-linecap="round" stroke-linejoin="round"/>
<path d="M10.5 16C12 13 16.5 11.0637 16.5 7C16.5 3.68629 13.8137 1 10.5 1C7.18629 1 4.5 3.68629 4.5 7C4.5 11.0637 9 13 10.5 16Z" fill="#E6FFF3"/>
<path d="M10.5 8C11.0523 8 11.5 7.55228 11.5 7C11.5 6.44772 11.0523 6 10.5 6C9.94771 6 9.5 6.44772 9.5 7C9.5 7.55228 9.94771 8 10.5 8Z" fill="#E6FFF3"/>
<path d="M3.5 13.2864C1.64864 14.1031 0.5 15.2412 0.5 16.5C0.5 18.9853 4.97715 21 10.5 21C16.0228 21 20.5 18.9853 20.5 16.5C20.5 15.2412 19.3514 14.1031 17.5 13.2864M16.5 7C16.5 11.0637 12 13 10.5 16C9 13 4.5 11.0637 4.5 7C4.5 3.68629 7.18629 1 10.5 1C13.8137 1 16.5 3.68629 16.5 7ZM11.5 7C11.5 7.55228 11.0523 8 10.5 8C9.94772 8 9.5 7.55228 9.5 7C9.5 6.44772 9.94772 6 10.5 6C11.0523 6 11.5 6.44772 11.5 7Z" stroke="#85CCAA" stroke-linecap="round" stroke-linejoin="round"/>
</svg>
