<svg width="21" height="24" viewBox="0 0 21 24" fill="none" xmlns="http://www.w3.org/2000/svg">
<path d="M0.5 16.5001C0.5 14.3999 0.5 13.3498 0.908726 12.5476C1.26825 11.842 1.84193 11.2683 2.54754 10.9088C3.3497 10.5001 4.3998 10.5001 6.5 10.5001H14.5C16.6002 10.5001 17.6503 10.5001 18.4525 10.9088C19.1581 11.2683 19.7317 11.842 20.0913 12.5476C20.5 13.3498 20.5 14.3999 20.5 16.5001V17.0001C20.5 19.1003 20.5 20.1504 20.0913 20.9525C19.7317 21.6581 19.1581 22.2318 18.4525 22.5913C17.6503 23.0001 16.6002 23.0001 14.5 23.0001H6.5C4.3998 23.0001 3.3497 23.0001 2.54754 22.5913C1.84193 22.2318 1.26825 21.6581 0.908726 20.9525C0.5 20.1504 0.5 19.1003 0.5 17.0001V16.5001Z" fill="#E6FFF3" stroke="#85CCAA" stroke-linecap="round" stroke-linejoin="round"/>
<path d="M0.500092 16.5C0.500092 14.3998 0.500092 13.3497 0.908817 12.5475C1.26834 11.8419 1.84202 11.2683 2.54763 10.9087C3.3498 10.5 4.39989 10.5 6.50009 10.5H14.5001C16.6003 10.5 17.6504 10.5 18.4526 10.9087C19.1582 11.2683 19.7318 11.8419 20.0914 12.5475C20.5001 13.3497 20.5001 14.3998 20.5001 16.5V17C20.5001 19.1002 20.5001 20.1503 20.0914 20.9525C19.7318 21.6581 19.1582 22.2317 18.4526 22.5913C17.6504 23 16.6003 23 14.5001 23H6.50009C4.39989 23 3.3498 23 2.54763 22.5913C1.84202 22.2317 1.26834 21.6581 0.908817 20.9525C0.500092 20.1503 0.500092 19.1002 0.500092 17V16.5Z" fill="#E6FFF3"/>
<path d="M4.25009 10.5V6.75C4.25009 3.29822 7.04831 0.5 10.5001 0.5C13.5238 0.5 16.046 2.6472 16.6251 5.5M6.50009 23H14.5001C16.6003 23 17.6504 23 18.4526 22.5913C19.1582 22.2317 19.7318 21.6581 20.0914 20.9525C20.5001 20.1503 20.5001 19.1002 20.5001 17V16.5C20.5001 14.3998 20.5001 13.3497 20.0914 12.5475C19.7318 11.8419 19.1582 11.2683 18.4526 10.9087C17.6504 10.5 16.6003 10.5 14.5001 10.5H6.50009C4.39989 10.5 3.3498 10.5 2.54763 10.9087C1.84202 11.2683 1.26834 11.8419 0.908817 12.5475C0.500092 13.3497 0.500092 14.3998 0.500092 16.5V17C0.500092 19.1002 0.500092 20.1503 0.908817 20.9525C1.26834 21.6581 1.84202 22.2317 2.54763 22.5913C3.3498 23 4.39989 23 6.50009 23Z" stroke="#85CCAA" stroke-linecap="round" stroke-linejoin="round"/>
</svg>
