<svg width="21" height="17" viewBox="0 0 21 17" fill="none" xmlns="http://www.w3.org/2000/svg">
<path d="M12.3351 9.21544C11.6739 9.67826 11.3434 9.90967 10.9838 9.99931C10.6661 10.0785 10.3339 10.0785 10.0163 9.99931C9.65671 9.90967 9.32612 9.67826 8.66495 9.21544L0.500031 3.5C0.500031 1.84315 1.84318 0.5 3.50003 0.5H17.5C19.1569 0.5 20.5 1.84315 20.5 3.5L12.3351 9.21544Z" fill="#E6FFF3" stroke="#85CCAA" stroke-linecap="round" stroke-linejoin="round"/>
<path d="M0.500031 5.3C0.500031 3.61984 0.500031 2.77976 0.827011 2.13803C1.11463 1.57354 1.57357 1.1146 2.13806 0.82698C2.77979 0.5 3.61987 0.5 5.30003 0.5H15.7C17.3802 0.5 18.2203 0.5 18.862 0.82698C19.4265 1.1146 19.8854 1.57354 20.173 2.13803C20.5 2.77976 20.5 3.61984 20.5 5.3V11.7C20.5 13.3802 20.5 14.2202 20.173 14.862C19.8854 15.4265 19.4265 15.8854 18.862 16.173C18.2203 16.5 17.3802 16.5 15.7 16.5H5.30003C3.61987 16.5 2.77979 16.5 2.13806 16.173C1.57357 15.8854 1.11463 15.4265 0.827011 14.862C0.500031 14.2202 0.500031 13.3802 0.500031 11.7V5.3Z" fill="#E6FFF3"/>
<path d="M0.500031 3.5L8.66495 9.21544C9.32612 9.67826 9.65671 9.90967 10.0163 9.99931C10.3339 10.0785 10.6661 10.0785 10.9838 9.99931C11.3434 9.90967 11.6739 9.67826 12.3351 9.21544L20.5 3.5M5.30003 16.5H15.7C17.3802 16.5 18.2203 16.5 18.862 16.173C19.4265 15.8854 19.8854 15.4265 20.173 14.862C20.5 14.2202 20.5 13.3802 20.5 11.7V5.3C20.5 3.61984 20.5 2.77976 20.173 2.13803C19.8854 1.57354 19.4265 1.1146 18.862 0.82698C18.2203 0.5 17.3802 0.5 15.7 0.5H5.30003C3.61987 0.5 2.77979 0.5 2.13806 0.82698C1.57357 1.1146 1.11463 1.57354 0.827011 2.13803C0.500031 2.77976 0.500031 3.61984 0.500031 5.3V11.7C0.500031 13.3802 0.500031 14.2202 0.827011 14.862C1.11463 15.4265 1.57357 15.8854 2.13806 16.173C2.77979 16.5 3.61987 16.5 5.30003 16.5Z" stroke="#85CCAA" stroke-linecap="round" stroke-linejoin="round"/>
</svg>
