<svg width="22" height="20" viewBox="0 0 22 20" fill="none" xmlns="http://www.w3.org/2000/svg">
<path d="M1 7.7C1 6.57989 1 6.01984 1.21799 5.59202C1.40973 5.21569 1.71569 4.90973 2.09202 4.71799C2.51984 4.5 3.07989 4.5 4.2 4.5H17.8C18.9201 4.5 19.4802 4.5 19.908 4.71799C20.2843 4.90973 20.5903 5.21569 20.782 5.59202C21 6.01984 21 6.5799 21 7.7V15.3C21 16.4201 21 16.9802 20.782 17.408C20.5903 17.7843 20.2843 18.0903 19.908 18.282C19.4802 18.5 18.9201 18.5 17.8 18.5H4.2C3.0799 18.5 2.51984 18.5 2.09202 18.282C1.71569 18.0903 1.40973 17.7843 1.21799 17.408C1 16.9802 1 16.4201 1 15.3V7.7Z" fill="#E6FFF3" stroke="#85CCAA" stroke-width="2" stroke-linecap="round" stroke-linejoin="round"/>
<path d="M1 7.7C1 6.5799 1 6.01984 1.21799 5.59202C1.40973 5.21569 1.71569 4.90973 2.09202 4.71799C2.51984 4.5 3.07989 4.5 4.2 4.5H17.8C18.9201 4.5 19.4802 4.5 19.908 4.71799C20.2843 4.90973 20.5903 5.21569 20.782 5.59202C21 6.01984 21 6.5799 21 7.7V15.3C21 16.4201 21 16.9802 20.782 17.408C20.5903 17.7843 20.2843 18.0903 19.908 18.282C19.4802 18.5 18.9201 18.5 17.8 18.5H4.2C3.0799 18.5 2.51984 18.5 2.09202 18.282C1.71569 18.0903 1.40973 17.7843 1.21799 17.408C1 16.9802 1 16.4201 1 15.3V7.7Z" fill="#E6FFF3"/>
<path d="M15 4.5C15 3.57003 15 3.10504 14.8978 2.72354C14.6204 1.68827 13.8117 0.879624 12.7765 0.602223C12.395 0.5 11.93 0.5 11 0.5C10.07 0.5 9.60504 0.5 9.22354 0.602223C8.18827 0.879624 7.37962 1.68827 7.10222 2.72354C7 3.10504 7 3.57003 7 4.5M4.2 18.5H17.8C18.9201 18.5 19.4802 18.5 19.908 18.282C20.2843 18.0903 20.5903 17.7843 20.782 17.408C21 16.9802 21 16.4201 21 15.3V7.7C21 6.57989 21 6.01984 20.782 5.59202C20.5903 5.21569 20.2843 4.90973 19.908 4.71799C19.4802 4.5 18.9201 4.5 17.8 4.5H4.2C3.07989 4.5 2.51984 4.5 2.09202 4.71799C1.71569 4.90973 1.40973 5.21569 1.21799 5.59202C1 6.01984 1 6.57989 1 7.7V15.3C1 16.4201 1 16.9802 1.21799 17.408C1.40973 17.7843 1.71569 18.0903 2.09202 18.282C2.51984 18.5 3.0799 18.5 4.2 18.5Z" stroke="#85CCAA" stroke-linecap="round" stroke-linejoin="round"/>
</svg>
