<svg width="27" height="30" viewBox="0 0 27 30" fill="none" xmlns="http://www.w3.org/2000/svg">
<path opacity="0.12" d="M13.4453 15C17.3113 15 20.4453 11.866 20.4453 8C20.4453 4.13401 17.3113 1 13.4453 1C9.57932 1 6.44531 4.13401 6.44531 8C6.44531 11.866 9.57932 15 13.4453 15Z" fill="black"/>
<path d="M25.8889 29C25.8889 26.8291 25.8889 25.7437 25.621 24.8604C25.0177 22.8718 23.4615 21.3156 21.4729 20.7124C20.5896 20.4444 19.5042 20.4444 17.3333 20.4444H9.55556C7.38468 20.4444 6.29924 20.4444 5.416 20.7124C3.42737 21.3156 1.87117 22.8718 1.26793 24.8604C1 25.7437 1 26.8291 1 29M20.4444 8C20.4444 11.866 17.3104 15 13.4444 15C9.57845 15 6.44444 11.866 6.44444 8C6.44444 4.13401 9.57845 1 13.4444 1C17.3104 1 20.4444 4.13401 20.4444 8Z" stroke="black" stroke-width="2" stroke-linecap="round" stroke-linejoin="round"/>
</svg>
