<svg width="30" height="30" viewBox="0 0 30 30" fill="none" xmlns="http://www.w3.org/2000/svg">
<path d="M3.75 11C3.75 8.8998 3.75 7.8497 4.15873 7.04754C4.51825 6.34193 5.09193 5.76825 5.79754 5.40873C6.5997 5 7.6498 5 9.75 5H20.25C22.3502 5 23.4003 5 24.2025 5.40873C24.9081 5.76825 25.4817 6.34193 25.8413 7.04754C26.25 7.8497 26.25 8.8998 26.25 11V12.5H3.75V11Z" fill="#1D9B5E"/>
<path d="M26.25 12.5H3.75M20 2.5V7.5M10 2.5V7.5M9.75 27.5H20.25C22.3502 27.5 23.4003 27.5 24.2025 27.0913C24.9081 26.7317 25.4817 26.1581 25.8413 25.4525C26.25 24.6503 26.25 23.6002 26.25 21.5V11C26.25 8.8998 26.25 7.8497 25.8413 7.04754C25.4817 6.34193 24.9081 5.76825 24.2025 5.40873C23.4003 5 22.3502 5 20.25 5H9.75C7.6498 5 6.5997 5 5.79754 5.40873C5.09193 5.76825 4.51825 6.34193 4.15873 7.04754C3.75 7.8497 3.75 8.8998 3.75 11V21.5C3.75 23.6002 3.75 24.6503 4.15873 25.4525C4.51825 26.1581 5.09193 26.7317 5.79754 27.0913C6.5997 27.5 7.6498 27.5 9.75 27.5Z" stroke="white" stroke-linecap="round" stroke-linejoin="round"/>
</svg>
