<svg width="22" height="24" viewBox="0 0 22 24" fill="none" xmlns="http://www.w3.org/2000/svg">
<path d="M1 8.05526C1 6.18842 1 5.255 1.36331 4.54196C1.68289 3.91475 2.19282 3.40481 2.82003 3.08524C3.53307 2.72192 4.46649 2.72192 6.33333 2.72192H15.6667C17.5335 2.72192 18.4669 2.72192 19.18 3.08524C19.8072 3.40481 20.3171 3.91475 20.6367 4.54196C21 5.255 21 6.18842 21 8.05526V9.38859H1V8.05526Z" fill="#E6FFF3" stroke="#85CCAA" stroke-width="2" stroke-linecap="round" stroke-linejoin="round"/>
<path d="M1 8.05556C1 6.18871 1 5.25529 1.36331 4.54225C1.68289 3.91505 2.19282 3.40511 2.82003 3.08553C3.53307 2.72222 4.46649 2.72222 6.33333 2.72222H15.6667C17.5335 2.72222 18.4669 2.72222 19.18 3.08553C19.8072 3.40511 20.3171 3.91505 20.6367 4.54225C21 5.25529 21 6.18871 21 8.05556V17.3889C21 19.2557 21 20.1892 20.6367 20.9022C20.3171 21.5294 19.8072 22.0393 19.18 22.3589C18.4669 22.7222 17.5335 22.7222 15.6667 22.7222H6.33333C4.46649 22.7222 3.53307 22.7222 2.82003 22.3589C2.19282 22.0393 1.68289 21.5294 1.36331 20.9022C1 20.1892 1 19.2557 1 17.3889V8.05556Z" fill="#E6FFF3"/>
<path d="M21 9.38889H1M15.4444 0.5V4.94444M6.55556 0.5V4.94444M6.33333 22.7222H15.6667C17.5335 22.7222 18.4669 22.7222 19.18 22.3589C19.8072 22.0393 20.3171 21.5294 20.6367 20.9022C21 20.1892 21 19.2557 21 17.3889V8.05556C21 6.18871 21 5.25529 20.6367 4.54225C20.3171 3.91505 19.8072 3.40511 19.18 3.08553C18.4669 2.72222 17.5335 2.72222 15.6667 2.72222H6.33333C4.46649 2.72222 3.53307 2.72222 2.82003 3.08553C2.19282 3.40511 1.68289 3.91505 1.36331 4.54225C1 5.25529 1 6.18871 1 8.05556V17.3889C1 19.2557 1 20.1892 1.36331 20.9022C1.68289 21.5294 2.19282 22.0393 2.82003 22.3589C3.53307 22.7222 4.46649 22.7222 6.33333 22.7222Z" stroke="#85CCAA" stroke-linecap="round" stroke-linejoin="round"/>
</svg>
