<svg width="45" height="42" viewBox="0 0 45 42" fill="none" xmlns="http://www.w3.org/2000/svg">
<path d="M1 13.0037C1 9.86237 3.54658 7.31579 6.68796 7.31579C8.32013 7.31579 9.76919 6.27137 10.2853 4.72295L10.4737 4.15789C10.5625 3.89143 10.6069 3.75819 10.6544 3.64C11.2612 2.13079 12.6829 1.10603 14.3066 1.0077C14.4337 1 14.5741 1 14.855 1H29.2502C29.5311 1 29.6716 1 29.7987 1.0077C31.4223 1.10603 32.8441 2.13079 33.4508 3.64C33.4983 3.75819 33.5428 3.89143 33.6316 4.15789L33.8199 4.72295C34.3361 6.27137 35.7851 7.31579 37.4173 7.31579C40.5587 7.31579 43.1053 9.86237 43.1053 13.0037V30.8947C43.1053 34.4319 43.1053 36.2005 42.4169 37.5515C41.8114 38.7399 40.8452 39.7061 39.6568 40.3116C38.3058 41 36.5372 41 33 41H11.1053C7.56809 41 5.7995 41 4.44848 40.3116C3.26009 39.7061 2.2939 38.7399 1.68838 37.5515C1 36.2005 1 34.4319 1 30.8947V13.0037Z" fill="#E6FFF3"/>
<path d="M22.0526 31.5263C27.2848 31.5263 31.5263 27.2848 31.5263 22.0526C31.5263 16.8205 27.2848 12.5789 22.0526 12.5789C16.8205 12.5789 12.5789 16.8205 12.5789 22.0526C12.5789 27.2848 16.8205 31.5263 22.0526 31.5263Z" fill="#E6FFF3"/>
<path d="M1 13.0037C1 9.86237 3.54658 7.31579 6.68796 7.31579C8.32013 7.31579 9.76919 6.27137 10.2853 4.72295L10.4737 4.15789C10.5625 3.89143 10.6069 3.75819 10.6544 3.64C11.2612 2.13079 12.6829 1.10603 14.3066 1.0077C14.4337 1 14.5741 1 14.855 1H29.2502C29.5311 1 29.6716 1 29.7987 1.0077C31.4223 1.10603 32.8441 2.13079 33.4508 3.64C33.4983 3.75819 33.5428 3.89143 33.6316 4.15789L33.8199 4.72295C34.3361 6.27137 35.7851 7.31579 37.4173 7.31579C40.5587 7.31579 43.1053 9.86237 43.1053 13.0037V30.8947C43.1053 34.4319 43.1053 36.2005 42.4169 37.5515C41.8114 38.7399 40.8452 39.7061 39.6568 40.3116C38.3058 41 36.5372 41 33 41H11.1053C7.56809 41 5.7995 41 4.44848 40.3116C3.26009 39.7061 2.2939 38.7399 1.68838 37.5515C1 36.2005 1 34.4319 1 30.8947V13.0037Z" stroke="#85CCAA" stroke-width="2" stroke-linecap="round" stroke-linejoin="round"/>
<path d="M22.0526 31.5263C27.2848 31.5263 31.5263 27.2848 31.5263 22.0526C31.5263 16.8205 27.2848 12.5789 22.0526 12.5789C16.8205 12.5789 12.5789 16.8205 12.5789 22.0526C12.5789 27.2848 16.8205 31.5263 22.0526 31.5263Z" stroke="#85CCAA" stroke-width="2" stroke-linecap="round" stroke-linejoin="round"/>
<path d="M22.0518 31.5261C27.284 31.5261 31.5255 27.2846 31.5255 22.0524C31.5255 16.8203 27.284 12.5788 22.0518 12.5788C16.8196 12.5788 12.5781 16.8203 12.5781 22.0524C12.5781 27.2846 16.8196 31.5261 22.0518 31.5261Z" fill="#E6FFF3" stroke="#85CCAA" stroke-width="2" stroke-linecap="round" stroke-linejoin="round"/>
</svg>
