<svg width="32" height="32" viewBox="0 0 32 32" fill="none" xmlns="http://www.w3.org/2000/svg">
<path d="M16 22C19.3137 22 22 19.3137 22 16C22 12.6863 19.3137 10 16 10C12.6863 10 10 12.6863 10 16C10 19.3137 12.6863 22 16 22Z" fill="#1D9B5E"/>
<path d="M2.66699 10.2691C2.66699 8.27952 4.27983 6.66669 6.26936 6.66669C7.30308 6.66669 8.22081 6.00522 8.5477 5.02455L8.66699 4.66669C8.72325 4.49792 8.75137 4.41354 8.78147 4.33869C9.16572 3.38285 10.0662 2.73384 11.0945 2.67156C11.175 2.66669 11.264 2.66669 11.4418 2.66669H20.5588C20.7367 2.66669 20.8256 2.66669 20.9062 2.67156C21.9345 2.73384 22.8349 3.38285 23.2192 4.33869C23.2493 4.41354 23.2774 4.49792 23.3337 4.66669L23.4529 5.02455C23.7798 6.00522 24.6976 6.66669 25.7313 6.66669C27.7208 6.66669 29.3337 8.27952 29.3337 10.2691V21.6C29.3337 23.8402 29.3337 24.9603 28.8977 25.816C28.5142 26.5686 27.9023 27.1806 27.1496 27.564C26.294 28 25.1739 28 22.9337 28H9.06699C6.82678 28 5.70668 28 4.85103 27.564C4.09838 27.1806 3.48646 26.5686 3.10297 25.816C2.66699 24.9603 2.66699 23.8402 2.66699 21.6V10.2691Z" stroke="white" stroke-linecap="round" stroke-linejoin="round"/>
<path d="M16.0003 22C19.314 22 22.0003 19.3137 22.0003 16C22.0003 12.6863 19.314 10 16.0003 10C12.6866 10 10.0003 12.6863 10.0003 16C10.0003 19.3137 12.6866 22 16.0003 22Z" stroke="white" stroke-linecap="round" stroke-linejoin="round"/>
</svg>
