<svg width="38" height="38" viewBox="0 0 38 38" fill="none" xmlns="http://www.w3.org/2000/svg">
<path fill-rule="evenodd" clip-rule="evenodd" d="M19 0C8.50659 0 0 8.50659 0 19C0 29.4934 8.50659 38 19 38C29.4934 38 38 29.4934 38 19C38 8.50659 29.4934 0 19 0ZM25.4032 12.5968C26.0777 13.2714 26.0777 14.365 25.4032 15.0395L21.4427 19L25.4032 22.9605C26.0777 23.635 26.0777 24.7286 25.4032 25.4032C24.7286 26.0777 23.635 26.0777 22.9605 25.4032L19 21.4427L15.0395 25.4032C14.365 26.0777 13.2714 26.0777 12.5968 25.4032C11.9223 24.7286 11.9223 23.635 12.5968 22.9605L16.5573 19L12.5968 15.0395C11.9223 14.365 11.9223 13.2714 12.5968 12.5968C13.2714 11.9223 14.365 11.9223 15.0395 12.5968L19 16.5573L22.9605 12.5968C23.635 11.9223 24.7286 11.9223 25.4032 12.5968Z" fill="#BCBCBC"/>
</svg>
