<svg width="28" height="28" viewBox="0 0 28 28" fill="none" xmlns="http://www.w3.org/2000/svg">
<path opacity="0.12" d="M8.6 27.4988C13.0735 27.4988 16.7 23.8723 16.7 19.3988C16.7 14.9253 13.0735 11.2988 8.6 11.2988C4.12649 11.2988 0.5 14.9253 0.5 19.3988C0.5 23.8723 4.12649 27.4988 8.6 27.4988Z" fill="#1D9B5E"/>
<path d="M5.9 5.9L8.6 3.2M8.6 3.2L5.9 0.5M8.6 3.2H5.9C2.91766 3.2 0.5 5.61766 0.5 8.6M22.1 22.1L19.4 24.8M19.4 24.8L22.1 27.5M19.4 24.8H22.1C25.0823 24.8 27.5 22.3823 27.5 19.4M11.5552 6.575C12.4544 3.08141 15.6257 0.5 19.4 0.5C23.8735 0.5 27.5 4.12649 27.5 8.6C27.5 12.3742 24.9186 15.5456 21.4251 16.4448M16.7 19.4C16.7 23.8735 13.0735 27.5 8.6 27.5C4.12649 27.5 0.5 23.8735 0.5 19.4C0.5 14.9265 4.12649 11.3 8.6 11.3C13.0735 11.3 16.7 14.9265 16.7 19.4Z" stroke="#1D9B5E" stroke-linecap="round" stroke-linejoin="round"/>
<path d="M11.0366 16.5208C10.3375 15.8951 9.41442 15.5147 8.40244 15.5147C6.22024 15.5147 4.45122 17.2837 4.45122 19.4659C4.45122 21.6481 6.22024 23.4171 8.40244 23.4171C9.41442 23.4171 10.3375 23.0367 11.0366 22.411M3.66098 20.6513H7.61219M3.66098 18.2805H7.61219M16.3049 19.4659C16.3049 23.8303 12.7668 27.3684 8.40244 27.3684C4.03804 27.3684 0.5 23.8303 0.5 19.4659C0.5 15.1015 4.03804 11.5635 8.40244 11.5635C12.7668 11.5635 16.3049 15.1015 16.3049 19.4659Z" stroke="#1D9B5E" stroke-linecap="round" stroke-linejoin="round"/>
</svg>
