<svg width="31" height="31" viewBox="0 0 31 31" fill="none" xmlns="http://www.w3.org/2000/svg">
<path d="M15.5002 28.4166C22.6338 28.4166 28.4168 22.6337 28.4168 15.5C28.4168 8.3663 22.6338 2.58331 15.5002 2.58331C8.36649 2.58331 2.5835 8.3663 2.5835 15.5C2.5835 22.6337 8.36649 28.4166 15.5002 28.4166Z" fill="#1D9B5E"/>
<path d="M19.8057 10.6861C18.6631 9.66348 17.1543 9.04165 15.5002 9.04165C11.9333 9.04165 9.04183 11.9331 9.04183 15.5C9.04183 19.0668 11.9333 21.9583 15.5002 21.9583C17.1543 21.9583 18.6631 21.3365 19.8057 20.3138M7.75016 17.4375H14.2085M7.75016 13.5625H14.2085M28.4168 15.5C28.4168 22.6337 22.6338 28.4166 15.5002 28.4166C8.36648 28.4166 2.5835 22.6337 2.5835 15.5C2.5835 8.3663 8.36648 2.58331 15.5002 2.58331C22.6338 2.58331 28.4168 8.3663 28.4168 15.5Z" stroke="white" stroke-linecap="round" stroke-linejoin="round"/>
</svg>
