<svg width="23" height="23" viewBox="0 0 23 23" fill="none" xmlns="http://www.w3.org/2000/svg">
<path opacity="0.12" d="M8.4375 11.25C8.4375 12.8033 9.6967 14.0625 11.25 14.0625C12.0267 14.0625 12.7298 13.7477 13.2387 13.2388L9.26126 9.26129C8.7523 9.77025 8.4375 10.4734 8.4375 11.25Z" fill="#B6B6B6"/>
<path d="M10.0711 4.77405C10.4522 4.71772 10.8452 4.6875 11.25 4.6875C16.036 4.6875 19.1765 8.91079 20.2315 10.5814C20.3592 10.7836 20.4231 10.8847 20.4588 11.0406C20.4857 11.1577 20.4856 11.3425 20.4588 11.4596C20.423 11.6155 20.3587 11.7173 20.2301 11.9208C19.949 12.3658 19.5204 12.991 18.9526 13.6692M6.30369 6.29535C4.27674 7.67034 2.90068 9.58067 2.26942 10.58C2.14115 10.783 2.07702 10.8845 2.04126 11.0405C2.01441 11.1576 2.0144 11.3423 2.04124 11.4594C2.07697 11.6153 2.14082 11.7164 2.26851 11.9186C3.32358 13.5892 6.46408 17.8125 11.25 17.8125C13.1798 17.8125 14.842 17.1259 16.2079 16.1968M2.81252 2.8125L19.6875 19.6875M9.26129 9.26126C8.75232 9.77022 8.43752 10.4733 8.43752 11.25C8.43752 12.8033 9.69672 14.0625 11.25 14.0625C12.0267 14.0625 12.7298 13.7477 13.2388 13.2387" stroke="#B6B6B6" stroke-width="2" stroke-linecap="round" stroke-linejoin="round"/>
</svg>
