<svg width="23" height="23" viewBox="0 0 23 23" fill="none" xmlns="http://www.w3.org/2000/svg">
<path opacity="0.12" d="M11.25 14.0625C12.8033 14.0625 14.0625 12.8033 14.0625 11.25C14.0625 9.6967 12.8033 8.4375 11.25 8.4375C9.6967 8.4375 8.4375 9.6967 8.4375 11.25C8.4375 12.8033 9.6967 14.0625 11.25 14.0625Z" fill="#B6B6B6"/>
<path d="M2.2685 11.9186C2.14082 11.7164 2.07699 11.6154 2.04125 11.4595C2.01441 11.3423 2.01441 11.1577 2.04125 11.0405C2.07699 10.8846 2.14082 10.7836 2.2685 10.5814C3.32357 8.91079 6.46407 4.6875 11.25 4.6875C16.036 4.6875 19.1765 8.91079 20.2315 10.5814C20.3592 10.7836 20.423 10.8846 20.4588 11.0405C20.4856 11.1577 20.4856 11.3423 20.4588 11.4595C20.423 11.6154 20.3592 11.7164 20.2315 11.9186C19.1765 13.5892 16.036 17.8125 11.25 17.8125C6.46407 17.8125 3.32357 13.5892 2.2685 11.9186Z" stroke="#B6B6B6" stroke-width="2" stroke-linecap="round" stroke-linejoin="round"/>
<path d="M11.25 14.0625C12.8033 14.0625 14.0625 12.8033 14.0625 11.25C14.0625 9.6967 12.8033 8.4375 11.25 8.4375C9.69671 8.4375 8.43751 9.6967 8.43751 11.25C8.43751 12.8033 9.69671 14.0625 11.25 14.0625Z" stroke="#B6B6B6" stroke-width="2" stroke-linecap="round" stroke-linejoin="round"/>
</svg>
