<svg width="24" height="24" viewBox="0 0 24 24" fill="none" xmlns="http://www.w3.org/2000/svg">
<path d="M10.1182 20.5591C11.3435 18.1086 13.1994 16.2415 14.7813 14.9761C15.5676 14.3471 16.2744 13.8762 16.7803 13.5649C17.0326 13.4097 17.234 13.2948 17.3691 13.2202C17.4366 13.183 17.4882 13.1561 17.5205 13.1392C17.5365 13.1308 17.5481 13.124 17.5547 13.1206C17.5563 13.1198 17.5576 13.1191 17.5586 13.1187L17.5586 10.8833C17.5576 10.8828 17.5564 10.8813 17.5547 10.8804C17.5482 10.8771 17.5362 10.871 17.5205 10.8628C17.4883 10.8459 17.4366 10.818 17.3691 10.7808C17.2341 10.7062 17.0325 10.5912 16.7803 10.436C16.2743 10.1247 15.5677 9.65306 14.7813 9.02393C13.1994 7.75841 11.3435 5.8915 10.1182 3.44092L9 4.00049L7.88184 4.55908C9.32303 7.44137 11.4675 9.57501 13.2188 10.9761C13.7153 11.3733 14.1855 11.7145 14.6035 12.0005C14.1854 12.2865 13.7153 12.6267 13.2188 13.0239C11.4674 14.425 9.32312 16.5593 7.88184 19.4419L10.1182 20.5591Z" fill="black"/>
</svg>
