<svg width="388" height="423" viewBox="0 0 388 423" fill="none" xmlns="http://www.w3.org/2000/svg">
<g clip-path="url(#clip0_9_7682)">
<path d="M146.91 103.303H142.987C142.696 103.303 142.461 103.066 142.461 102.775C142.461 102.483 142.696 102.246 142.987 102.246H146.91C147.201 102.246 147.436 102.483 147.436 102.775C147.436 103.066 147.201 103.303 146.91 103.303ZM139.063 103.303H135.139C134.849 103.303 134.613 103.066 134.613 102.775C134.613 102.483 134.849 102.246 135.139 102.246H139.063C139.353 102.246 139.589 102.483 139.589 102.775C139.589 103.066 139.353 103.303 139.063 103.303ZM131.218 103.303H127.295C127.004 103.303 126.769 103.066 126.769 102.775C126.769 102.483 127.004 102.246 127.295 102.246H131.218C131.509 102.246 131.745 102.483 131.745 102.775C131.745 103.066 131.509 103.303 131.218 103.303ZM123.371 103.303H119.447C119.157 103.303 118.921 103.066 118.921 102.775C118.921 102.483 119.157 102.246 119.447 102.246H123.371C123.662 102.246 123.897 102.483 123.897 102.775C123.897 103.066 123.662 103.303 123.371 103.303ZM115.526 103.303H111.603C111.312 103.303 111.077 103.066 111.077 102.775C111.077 102.483 111.312 102.246 111.603 102.246H115.526C115.817 102.246 116.053 102.483 116.053 102.775C116.053 103.066 115.817 103.303 115.526 103.303ZM107.679 103.303H103.755C103.465 103.303 103.229 103.066 103.229 102.775C103.229 102.483 103.465 102.246 103.755 102.246H107.679C107.97 102.246 108.205 102.483 108.205 102.775C108.205 103.066 107.97 103.303 107.679 103.303ZM99.8345 103.303H95.9108C95.6204 103.303 95.3848 103.066 95.3848 102.775C95.3848 102.483 95.6204 102.246 95.9108 102.246H99.8345C100.125 102.246 100.361 102.483 100.361 102.775C100.361 103.066 100.125 103.303 99.8345 103.303ZM91.9872 103.303H88.0635C87.773 103.303 87.5374 103.066 87.5374 102.775C87.5374 102.483 87.773 102.246 88.0635 102.246H91.9872C92.2776 102.246 92.5133 102.483 92.5133 102.775C92.5133 103.066 92.2776 103.303 91.9872 103.303ZM84.1426 103.303H80.2189C79.9284 103.303 79.6928 103.066 79.6928 102.775C79.6928 102.483 79.9284 102.246 80.2189 102.246H84.1426C84.433 102.246 84.6686 102.483 84.6686 102.775C84.6659 103.066 84.433 103.303 84.1426 103.303ZM76.2952 103.303H72.3715C72.0811 103.303 71.8455 103.066 71.8455 102.775C71.8455 102.483 72.0811 102.246 72.3715 102.246H76.2952C76.5856 102.246 76.8213 102.483 76.8213 102.775C76.8213 103.066 76.5856 103.303 76.2952 103.303ZM68.4506 103.303H64.5269C64.2365 103.303 64.0008 103.066 64.0008 102.775C64.0008 102.483 64.2365 102.246 64.5269 102.246H68.4506C68.741 102.246 68.9767 102.483 68.9767 102.775C68.9739 103.066 68.741 103.303 68.4506 103.303ZM60.6032 103.303H56.6796C56.3891 103.303 56.1535 103.066 56.1535 102.775C56.1535 102.483 56.3891 102.246 56.6796 102.246H60.6032C60.8937 102.246 61.1293 102.483 61.1293 102.775C61.1293 103.066 60.8937 103.303 60.6032 103.303ZM52.7586 103.303H48.835C48.5445 103.303 48.3089 103.066 48.3089 102.775C48.3089 102.483 48.5445 102.246 48.835 102.246H52.7586C53.0491 102.246 53.2847 102.483 53.2847 102.775C53.282 103.066 53.0463 103.303 52.7586 103.303ZM44.9113 103.303H40.9876C40.6972 103.303 40.4615 103.066 40.4615 102.775C40.4615 102.483 40.6972 102.246 40.9876 102.246H44.9113C45.2017 102.246 45.4374 102.483 45.4374 102.775C45.4374 103.066 45.2017 103.303 44.9113 103.303ZM37.0667 103.303H33.143C32.8526 103.303 32.6169 103.066 32.6169 102.775C32.6169 102.483 32.8526 102.246 33.143 102.246H37.0667C37.3571 102.246 37.5928 102.483 37.5928 102.775C37.59 103.066 37.3544 103.303 37.0667 103.303ZM29.2193 103.303H25.2956C25.0052 103.303 24.7696 103.066 24.7696 102.775C24.7696 102.483 25.0052 102.246 25.2956 102.246H29.2193C29.5098 102.246 29.7454 102.483 29.7454 102.775C29.7454 103.066 29.5098 103.303 29.2193 103.303ZM21.372 103.303H17.451C17.1606 103.303 16.925 103.066 16.925 102.775C16.925 102.483 17.1606 102.246 17.451 102.246H21.372C21.6624 102.246 21.8981 102.483 21.8981 102.775C21.8981 103.066 21.6624 103.303 21.372 103.303ZM13.5274 103.303H9.60369C9.31325 103.303 9.07761 103.066 9.07761 102.775C9.07761 102.483 9.31325 102.246 9.60369 102.246H13.5274C13.8178 102.246 14.0534 102.483 14.0534 102.775C14.0534 103.066 13.8178 103.303 13.5274 103.303ZM5.68001 103.303H5.04159C3.80038 103.303 2.60574 102.863 1.68236 102.068C1.46316 101.878 1.43576 101.545 1.62482 101.325C1.81388 101.105 2.14542 101.077 2.36462 101.267C3.09894 101.9 4.04972 102.249 5.04159 102.249H5.68001C5.97045 102.249 6.20609 102.486 6.20609 102.778C6.20609 103.066 5.97045 103.303 5.68001 103.303ZM150.631 102.368C150.472 102.368 150.316 102.296 150.212 102.158C150.037 101.927 150.083 101.594 150.313 101.418C151.267 100.695 151.818 99.6104 151.82 98.4519C151.82 98.1602 152.056 97.9263 152.347 97.9263C152.637 97.9263 152.87 98.163 152.87 98.4546C152.867 99.9488 152.166 101.336 150.946 102.263C150.853 102.335 150.741 102.368 150.631 102.368ZM0.526079 98.7023C0.23564 98.7023 0 98.4657 0 98.174V94.2336C0 93.9419 0.23564 93.7053 0.526079 93.7053C0.816519 93.7053 1.05216 93.9419 1.05216 94.2336V98.174C1.04942 98.4657 0.816519 98.7023 0.526079 98.7023ZM152.344 95.0426C152.053 95.0426 151.818 94.8059 151.818 94.5143V90.5739C151.818 90.2822 152.053 90.0455 152.344 90.0455C152.634 90.0455 152.87 90.2822 152.87 90.5739V94.5143C152.87 94.8059 152.634 95.0426 152.344 95.0426ZM0.526079 90.8215C0.23564 90.8215 0 90.5849 0 90.2932V86.3528C0 86.0611 0.23564 85.8245 0.526079 85.8245C0.816519 85.8245 1.05216 86.0611 1.05216 86.3528V90.2932C1.04942 90.5849 0.816519 90.8215 0.526079 90.8215ZM152.344 87.1618C152.053 87.1618 151.818 86.9252 151.818 86.6335V82.6931C151.818 82.4014 152.053 82.1648 152.344 82.1648C152.634 82.1648 152.87 82.4014 152.87 82.6931V86.6335C152.87 86.9252 152.634 87.1618 152.344 87.1618ZM0.526079 82.9435C0.23564 82.9435 0 82.7069 0 82.4152V78.4748C0 78.1831 0.23564 77.9465 0.526079 77.9465C0.816519 77.9465 1.05216 78.1831 1.05216 78.4748V82.4152C1.04942 82.7069 0.816519 82.9435 0.526079 82.9435ZM152.344 79.2838C152.053 79.2838 151.818 79.0471 151.818 78.7555V74.8151C151.818 74.5234 152.053 74.2868 152.344 74.2868C152.634 74.2868 152.87 74.5234 152.87 74.8151V78.7555C152.87 79.0471 152.634 79.2838 152.344 79.2838ZM0.526079 75.0627C0.23564 75.0627 0 74.8261 0 74.5344V70.594C0 70.3023 0.23564 70.0657 0.526079 70.0657C0.816519 70.0657 1.05216 70.3023 1.05216 70.594V74.5344C1.04942 74.8261 0.816519 75.0627 0.526079 75.0627ZM152.344 71.403C152.053 71.403 151.818 71.1664 151.818 70.8747V66.9343C151.818 66.6426 152.053 66.406 152.344 66.406C152.634 66.406 152.87 66.6426 152.87 66.9343V70.8747C152.87 71.1664 152.634 71.403 152.344 71.403ZM0.526079 67.1847C0.23564 67.1847 0 66.9481 0 66.6564V62.716C0 62.4243 0.23564 62.1877 0.526079 62.1877C0.816519 62.1877 1.05216 62.4243 1.05216 62.716V66.6564C1.04942 66.9481 0.816519 67.1847 0.526079 67.1847ZM152.344 63.5222C152.053 63.5222 151.818 63.2856 151.818 62.9939V59.0535C151.818 58.7619 152.053 58.5252 152.344 58.5252C152.634 58.5252 152.87 58.7619 152.87 59.0535V62.9939C152.87 63.2883 152.634 63.5222 152.344 63.5222ZM0.526079 59.3039C0.23564 59.3039 0 59.0673 0 58.7756V54.8352C0 54.5435 0.23564 54.3069 0.526079 54.3069C0.816519 54.3069 1.05216 54.5435 1.05216 54.8352V58.7756C1.04942 59.0673 0.816519 59.3039 0.526079 59.3039ZM152.344 55.6442C152.053 55.6442 151.818 55.4076 151.818 55.1159V51.1755C151.818 50.8838 152.053 50.6472 152.344 50.6472C152.634 50.6472 152.87 50.8838 152.87 51.1755V55.1159C152.87 55.4076 152.634 55.6442 152.344 55.6442ZM0.526079 51.4259C0.23564 51.4259 0 51.1893 0 50.8976V46.9572C0 46.6655 0.23564 46.4289 0.526079 46.4289C0.816519 46.4289 1.05216 46.6655 1.05216 46.9572V50.8976C1.04942 51.1893 0.816519 51.4259 0.526079 51.4259ZM152.344 47.7634C152.053 47.7634 151.818 47.5268 151.818 47.2351V43.2947C151.818 43.0031 152.053 42.7664 152.344 42.7664C152.634 42.7664 152.87 43.0031 152.87 43.2947V47.2351C152.87 47.5295 152.634 47.7634 152.344 47.7634ZM0.526079 43.5451C0.23564 43.5451 0 43.3085 0 43.0168V39.0764C0 38.7847 0.23564 38.5481 0.526079 38.5481C0.816519 38.5481 1.05216 38.7847 1.05216 39.0764V43.0168C1.04942 43.3085 0.816519 43.5451 0.526079 43.5451ZM152.344 39.8854C152.053 39.8854 151.818 39.6488 151.818 39.3571V35.4167C151.818 35.125 152.053 34.8884 152.344 34.8884C152.634 34.8884 152.87 35.125 152.87 35.4167V39.3571C152.87 39.6488 152.634 39.8854 152.344 39.8854ZM0.526079 35.6644C0.23564 35.6644 0 35.4277 0 35.136V31.1957C0 30.904 0.23564 30.6673 0.526079 30.6673C0.816519 30.6673 1.05216 30.904 1.05216 31.1957V35.136C1.04942 35.4305 0.816519 35.6644 0.526079 35.6644ZM152.344 32.0046C152.053 32.0046 151.818 31.768 151.818 31.4763V27.5359C151.818 27.2443 152.053 27.0076 152.344 27.0076C152.634 27.0076 152.87 27.2443 152.87 27.5359V31.4763C152.87 31.768 152.634 32.0046 152.344 32.0046ZM0.526079 27.7863C0.23564 27.7863 0 27.5497 0 27.258V23.3176C0 23.026 0.23564 22.7811 0.526079 22.7811C0.816519 22.7811 1.05216 23.0094 1.05216 23.2984V27.2553C1.04942 27.5497 0.816519 27.7863 0.526079 27.7863ZM152.344 24.1266C152.053 24.1266 151.818 23.89 151.818 23.5983V23.3176C151.818 22.2472 151.341 21.2209 150.508 20.5027C150.289 20.3128 150.264 19.9799 150.453 19.7597C150.642 19.5396 150.974 19.5148 151.193 19.7047C152.256 20.6237 152.867 21.9418 152.867 23.3204V23.6011C152.87 23.89 152.634 24.1266 152.344 24.1266ZM2.2468 20.4449C2.08788 20.4449 1.92896 20.3733 1.82758 20.2358C1.65222 20.0019 1.6988 19.6717 1.9317 19.4983C2.82768 18.8214 3.90176 18.4637 5.04159 18.4637H5.97045C6.26089 18.4637 6.49653 18.7003 6.49653 18.992C6.49653 19.2837 6.26089 19.5203 5.97045 19.5203H5.04159C4.13191 19.5203 3.2743 19.8038 2.56464 20.3431C2.46874 20.4091 2.3564 20.4449 2.2468 20.4449ZM147.198 19.5176H143.274C142.984 19.5176 142.748 19.2809 142.748 18.9893C142.748 18.6976 142.984 18.4609 143.274 18.4609H147.198C147.489 18.4609 147.724 18.6976 147.724 18.9893C147.724 19.2809 147.489 19.5176 147.198 19.5176ZM139.353 19.5176H135.43C135.139 19.5176 134.904 19.2809 134.904 18.9893C134.904 18.6976 135.139 18.4609 135.43 18.4609H139.353C139.644 18.4609 139.88 18.6976 139.88 18.9893C139.877 19.2809 139.641 19.5176 139.353 19.5176ZM131.506 19.5176H127.582C127.292 19.5176 127.056 19.2809 127.056 18.9893C127.056 18.6976 127.292 18.4609 127.582 18.4609H131.506C131.797 18.4609 132.032 18.6976 132.032 18.9893C132.032 19.2809 131.797 19.5176 131.506 19.5176ZM123.662 19.5176H119.738C119.447 19.5176 119.212 19.2809 119.212 18.9893C119.212 18.6976 119.447 18.4609 119.738 18.4609H123.662C123.952 18.4609 124.188 18.6976 124.188 18.9893C124.185 19.2809 123.949 19.5176 123.662 19.5176ZM115.814 19.5176H111.89C111.6 19.5176 111.364 19.2809 111.364 18.9893C111.364 18.6976 111.6 18.4609 111.89 18.4609H115.814C116.105 18.4609 116.34 18.6976 116.34 18.9893C116.34 19.2809 116.105 19.5176 115.814 19.5176ZM107.967 19.5176H104.043C103.753 19.5176 103.517 19.2809 103.517 18.9893C103.517 18.6976 103.753 18.4609 104.043 18.4609H107.967C108.257 18.4609 108.493 18.6976 108.493 18.9893C108.493 19.2809 108.257 19.5176 107.967 19.5176ZM100.122 19.5176H96.1985C95.9081 19.5176 95.6725 19.2809 95.6725 18.9893C95.6725 18.6976 95.9081 18.4609 96.1985 18.4609H100.122C100.413 18.4609 100.648 18.6976 100.648 18.9893C100.648 19.2809 100.413 19.5176 100.122 19.5176ZM92.2749 19.5176H88.3512C88.0608 19.5176 87.8251 19.2809 87.8251 18.9893C87.8251 18.6976 88.0608 18.4609 88.3512 18.4609H92.2749C92.5653 18.4609 92.8009 18.6976 92.8009 18.9893C92.8009 19.2809 92.5653 19.5176 92.2749 19.5176ZM84.4303 19.5176H80.5066C80.2161 19.5176 79.9805 19.2809 79.9805 18.9893C79.9805 18.6976 80.2161 18.4609 80.5066 18.4609H84.4303C84.7207 18.4609 84.9563 18.6976 84.9563 18.9893C84.9563 19.2809 84.7207 19.5176 84.4303 19.5176ZM76.5829 19.5176H72.6592C72.3688 19.5176 72.1332 19.2809 72.1332 18.9893C72.1332 18.6976 72.3688 18.4609 72.6592 18.4609H76.5829C76.8733 18.4609 77.109 18.6976 77.109 18.9893C77.109 19.2809 76.8733 19.5176 76.5829 19.5176ZM68.7383 19.5176H64.8146C64.5242 19.5176 64.2885 19.2809 64.2885 18.9893C64.2885 18.6976 64.5242 18.4609 64.8146 18.4609H68.7383C69.0287 18.4609 69.2644 18.6976 69.2644 18.9893C69.2644 19.2809 69.0287 19.5176 68.7383 19.5176ZM60.8909 19.5176H56.9673C56.6768 19.5176 56.4412 19.2809 56.4412 18.9893C56.4412 18.6976 56.6768 18.4609 56.9673 18.4609H60.8909C61.1814 18.4609 61.417 18.6976 61.417 18.9893C61.417 19.2809 61.1814 19.5176 60.8909 19.5176ZM53.0463 19.5176H49.1227C48.8322 19.5176 48.5966 19.2809 48.5966 18.9893C48.5966 18.6976 48.8322 18.4609 49.1227 18.4609H53.0463C53.3368 18.4609 53.5724 18.6976 53.5724 18.9893C53.5697 19.2809 53.3368 19.5176 53.0463 19.5176ZM45.199 19.5176H41.2753C40.9849 19.5176 40.7492 19.2809 40.7492 18.9893C40.7492 18.6976 40.9849 18.4609 41.2753 18.4609H45.199C45.4894 18.4609 45.7251 18.6976 45.7251 18.9893C45.7251 19.2809 45.4894 19.5176 45.199 19.5176ZM37.3544 19.5176H33.4307C33.1403 19.5176 32.9046 19.2809 32.9046 18.9893C32.9046 18.6976 33.1403 18.4609 33.4307 18.4609H37.3544C37.6448 18.4609 37.8805 18.6976 37.8805 18.9893C37.8777 19.2809 37.6448 19.5176 37.3544 19.5176ZM29.507 19.5176H25.5833C25.2929 19.5176 25.0573 19.2809 25.0573 18.9893C25.0573 18.6976 25.2929 18.4609 25.5833 18.4609H29.507C29.7975 18.4609 30.0331 18.6976 30.0331 18.9893C30.0331 19.2809 29.7975 19.5176 29.507 19.5176ZM21.6624 19.5176H17.7387C17.4483 19.5176 17.2127 19.2809 17.2127 18.9893C17.2127 18.6976 17.4483 18.4609 17.7387 18.4609H21.6624C21.9529 18.4609 22.1885 18.6976 22.1885 18.9893C22.1858 19.2809 21.9529 19.5176 21.6624 19.5176ZM13.8151 19.5176H9.89139C9.60095 19.5176 9.36531 19.2809 9.36531 18.9893C9.36531 18.6976 9.60095 18.4609 9.89139 18.4609H13.8151C14.1055 18.4609 14.3411 18.6976 14.3411 18.9893C14.3411 19.2809 14.1055 19.5176 13.8151 19.5176Z" fill="#9FFFCA"/>
<path d="M157.81 90.5216H18.3334C15.3961 90.5216 13.0178 88.1304 13.0178 85.1834V5.70695C13.0178 2.75716 15.3989 0.368713 18.3334 0.368713H157.81C160.747 0.368713 163.126 2.75991 163.126 5.70695V85.1834C163.129 88.1331 160.747 90.5216 157.81 90.5216Z" fill="#0AE874"/>
<path d="M163.129 17.3961H13.0178V32.954H163.129V17.3961Z" fill="#1D9B5E"/>
<path d="M47.3992 73.2246H25.3286C23.9257 73.2246 22.7886 74.3666 22.7886 75.7754C22.7886 77.1843 23.9257 78.3262 25.3286 78.3262H47.3992C48.8021 78.3262 49.9392 77.1843 49.9392 75.7754C49.9392 74.3693 48.8021 73.2246 47.3992 73.2246Z" fill="#D1F5FF"/>
<path d="M81.3423 73.2246H59.2717C57.8688 73.2246 56.7317 74.3666 56.7317 75.7754C56.7317 77.1843 57.8688 78.3262 59.2717 78.3262H81.3423C82.7452 78.3262 83.8823 77.1843 83.8823 75.7754C83.8823 74.3693 82.7452 73.2246 81.3423 73.2246Z" fill="#D1F5FF"/>
<path d="M115.283 73.2246H93.2118C91.809 73.2246 90.6719 74.3666 90.6719 75.7754C90.6719 77.1843 91.809 78.3262 93.2118 78.3262H115.283C116.685 78.3262 117.823 77.1843 117.823 75.7754C117.823 74.3693 116.685 73.2246 115.283 73.2246Z" fill="#D1F5FF"/>
<path d="M149.223 73.2246H127.152C125.749 73.2246 124.612 74.3666 124.612 75.7754C124.612 77.1843 125.749 78.3262 127.152 78.3262H149.223C150.626 78.3262 151.763 77.1843 151.763 75.7754C151.763 74.3666 150.626 73.2246 149.223 73.2246Z" fill="#D1F5FF"/>
<path d="M24.3121 4.94476C22.764 4.94476 21.509 6.20503 21.509 7.75972V8.74757C21.509 10.3023 22.764 11.5625 24.3121 11.5625C25.8601 11.5625 27.1151 10.3023 27.1151 8.74757V7.75972C27.1151 6.20503 25.8601 4.94476 24.3121 4.94476Z" fill="#D1F5FF"/>
<path d="M30.3538 8.25502C30.3538 10.0821 31.8306 11.5653 33.65 11.5653H45.3333C47.1527 11.5653 48.6295 10.0821 48.6295 8.25502C48.6295 6.42791 47.1527 4.94476 45.3333 4.94476H33.65C31.8279 4.94476 30.3538 6.42516 30.3538 8.25502Z" fill="#D1F5FF"/>
<path d="M28.8192 41.319H43.9083C46.3278 41.319 48.2869 43.2865 48.2869 45.7162V58.7811C48.2869 61.2108 46.3278 63.1783 43.9083 63.1783H28.8192C26.3998 63.1783 24.4407 61.2108 24.4407 58.7811V45.7162C24.4407 43.2892 26.4025 41.319 28.8192 41.319Z" fill="#FF9F34"/>
<path d="M322.01 72.1625C323.772 65.1843 324.059 58.1345 323.054 51.4149L325.18 51.0957L329.378 50.4656L329.433 50.4546C328.293 42.7637 325.676 35.4305 321.758 28.8568L316.228 32.1643C312.68 26.2179 308.003 20.9457 302.342 16.7687L306.178 11.557C300.194 7.06905 293.226 3.6735 285.54 1.71706L283.954 8.00462C276.981 6.2298 269.986 5.94637 263.294 6.95624L262.335 0.550354C254.677 1.6923 247.37 4.3449 240.829 8.25777L244.123 13.8106C238.199 17.374 232.952 22.0711 228.79 27.7533L223.603 23.8982C219.134 29.9079 215.753 36.9054 213.805 44.6238L220.066 46.217C218.298 53.22 218.013 60.245 219.019 66.9646L214.506 67.6415L212.665 67.9332L212.64 67.9277C213.78 75.6186 216.419 82.9573 220.315 89.5255L225.844 86.218C229.392 92.1644 234.092 97.4421 239.752 101.622L235.914 106.831C241.901 111.319 248.844 114.709 256.529 116.665L258.116 110.378C265.089 112.152 272.109 112.444 278.8 111.434L279.537 116.412L279.759 117.837C287.417 116.695 294.703 114.035 301.243 110.124L297.95 104.572C303.871 101.008 309.126 96.2891 313.31 90.6097L318.497 94.4648C322.944 88.4469 326.32 81.4741 328.265 73.7557L322.01 72.1625ZM264.023 86.9885C248.726 83.0949 239.481 67.5094 243.358 52.1469C247.23 36.8063 262.746 27.5249 278.047 31.4186C293.322 35.3067 302.564 50.8894 298.695 66.2299C294.818 81.5925 279.299 90.8766 264.023 86.9885Z" stroke="#6D8578" stroke-miterlimit="10" stroke-linejoin="round"/>
<path d="M346.612 129.659C344.261 126.692 341.412 124.326 338.285 122.609L338.828 121.613L339.902 119.645L339.913 119.618C336.34 117.648 332.447 116.412 328.452 115.966L328.071 119.348C324.459 118.946 320.769 119.235 317.22 120.286L316.27 117.012C312.488 118.102 308.852 119.951 305.586 122.565L307.704 125.237C304.742 127.606 302.394 130.459 300.682 133.599L297.703 131.962C295.739 135.55 294.519 139.471 294.067 143.472L297.435 143.854C297.035 147.484 297.322 151.188 298.369 154.751L295.109 155.706C296.194 159.503 298.035 163.155 300.635 166.435L303.296 164.308C305.655 167.282 308.496 169.64 311.623 171.36L310.466 173.476L310 174.343L309.989 174.351C313.562 176.321 317.467 177.549 321.451 178.003L321.832 174.621C325.443 175.023 329.145 174.725 332.693 173.674L333.644 176.949C337.425 175.859 341.053 174.015 344.316 171.404L342.198 168.732C345.16 166.363 347.519 163.501 349.229 160.362L351.542 161.638L352.207 161.999C354.172 158.411 355.383 154.498 355.832 150.497L352.465 150.114C352.865 146.488 352.569 142.77 351.533 139.199L354.794 138.244C353.701 134.455 351.865 130.812 349.265 127.534L346.612 129.659ZM334.323 158.791C327.824 163.988 318.374 162.915 313.198 156.388C308.03 149.872 309.099 140.382 315.598 135.181C322.087 129.992 331.537 131.065 336.707 137.583C341.883 144.11 340.814 153.598 334.323 158.791Z" stroke="#6D8578" stroke-miterlimit="10" stroke-linejoin="round"/>
<path d="M106.575 285.334C103.862 281.914 100.572 279.179 96.9658 277.197L97.5932 276.047L98.8344 273.777L98.8481 273.747C94.7244 271.471 90.2308 270.046 85.6222 269.534L85.181 273.436C81.0135 272.974 76.7528 273.307 72.6592 274.52L71.5632 270.739C67.2012 271.997 63.0035 274.132 59.236 277.145L61.6801 280.227C58.2606 282.962 55.5507 286.256 53.5779 289.877L50.142 287.989C47.876 292.131 46.4676 296.654 45.947 301.272L49.8323 301.715C49.3693 305.903 49.7036 310.179 50.9119 314.29L47.1471 315.391C48.3993 319.771 50.5256 323.987 53.5259 327.77L56.5946 325.316C59.3182 328.75 62.598 331.471 66.2038 333.453L64.8694 335.893L64.3324 336.895L64.3214 336.903C68.4451 339.179 72.9497 340.593 77.5474 341.116L77.9885 337.214C82.1561 337.679 86.4277 337.335 90.5213 336.122L91.6173 339.902C95.9794 338.645 100.166 336.518 103.934 333.505L101.489 330.423C104.909 327.688 107.63 324.386 109.603 320.765L112.271 322.237L113.039 322.652C115.305 318.511 116.702 313.995 117.223 309.381L113.337 308.938C113.798 304.753 113.458 300.463 112.26 296.344L116.025 295.243C114.762 290.87 112.644 286.666 109.644 282.882L106.575 285.334ZM92.3954 318.951C84.8961 324.95 73.9909 323.712 68.015 316.178C62.05 308.657 63.2857 297.706 70.7851 291.707C78.2735 285.717 89.1787 286.958 95.1437 294.478C101.117 302.009 99.8839 312.961 92.3954 318.951Z" stroke="#6D8578" stroke-miterlimit="10"/>
<path d="M270.799 58.6325C267.758 40.5321 239.999 32.3596 240.542 44.1725L113.296 44.921C104.482 44.9733 97.3357 52.9366 97.3302 62.7133L97.0671 398.794C97.0589 408.925 104.331 417.208 113.313 417.285L243.21 418.405C244.016 420.105 245.526 421.652 247.904 422.945C262.801 423.264 269.944 415.876 272.556 407.522C273.405 405.279 273.868 402.803 273.846 400.191C273.323 395.819 271.739 62.8784 270.799 58.6325Z" fill="#1D9B5E"/>
<path d="M246.512 423L97.4096 422.034C88.1045 421.974 80.5805 413.466 80.597 403.042L81.1559 57.4138C81.1724 47.3619 88.5786 39.195 97.7027 39.1675L243.909 38.6914C253.104 38.6612 260.626 46.8144 260.702 56.913L263.352 404.14C263.434 414.61 255.891 423.061 246.512 423Z" fill="white"/>
<path d="M248.57 420.485C247.951 420.568 247.318 420.609 246.685 420.603L97.6261 419.47C89.6308 419.409 83.0959 411.949 83.1096 402.852L83.6248 57.6034C83.6385 48.8284 90.0692 41.6658 97.9111 41.6328L244.109 40.9944C244.337 40.9944 244.569 40.9971 244.797 41.0081C248.477 41.1787 251.915 42.8628 254.483 45.7438C257.11 48.688 258.571 52.5899 258.601 56.7367L261.215 404.316C261.281 412.552 255.864 419.505 248.57 420.485Z" fill="black"/>
<path d="M253.477 58.4839L255.992 404.85L88.0718 403.843L88.4992 58.4839H253.477Z" fill="#1D9B5E"/>
<path d="M195.055 232.775H150.103C146.299 232.775 143.187 229.649 143.187 225.829C143.187 222.01 146.299 218.884 150.103 218.884H195.055C198.858 218.884 201.971 222.01 201.971 225.829C201.971 229.649 198.858 232.775 195.055 232.775Z" fill="#FF9F34"/>
<path d="M229.253 181.217H113.017C109.213 181.217 106.101 178.091 106.101 174.271C106.101 170.452 109.213 167.326 113.017 167.326H229.253C233.056 167.326 236.168 170.452 236.168 174.271C236.168 178.091 233.056 181.217 229.253 181.217Z" fill="white"/>
<path d="M229.253 203.585H113.017C109.213 203.585 106.101 200.459 106.101 196.64C106.101 192.82 109.213 189.694 113.017 189.694H229.253C233.056 189.694 236.168 192.82 236.168 196.64C236.168 200.459 233.056 203.585 229.253 203.585Z" fill="white"/>
<path d="M134.72 197.256C134.72 198.607 133.63 199.702 132.284 199.702C130.939 199.702 129.848 198.607 129.848 197.256C129.848 195.905 130.939 194.81 132.284 194.81C133.63 194.81 134.72 195.905 134.72 197.256Z" fill="#0AE874"/>
<path d="M143.009 197.766C143.289 196.444 142.449 195.145 141.133 194.864C139.817 194.583 138.524 195.427 138.244 196.748C137.964 198.069 138.804 199.368 140.12 199.649C141.436 199.93 142.729 199.087 143.009 197.766Z" fill="#0AE874"/>
<path d="M150.702 198.985C151.653 198.03 151.653 196.481 150.702 195.526C149.751 194.57 148.208 194.57 147.257 195.526C146.306 196.481 146.306 198.03 147.257 198.985C148.208 199.94 149.751 199.94 150.702 198.985Z" fill="#0AE874"/>
<path d="M159.05 198.985C160.002 198.029 160.002 196.48 159.05 195.525C158.099 194.57 156.557 194.57 155.606 195.525C154.654 196.48 154.654 198.029 155.606 198.985C156.557 199.94 158.099 199.94 159.05 198.985Z" fill="#0AE874"/>
<path d="M166.615 199.518C167.858 199.001 168.449 197.57 167.934 196.322C167.419 195.073 165.994 194.481 164.751 194.998C163.508 195.515 162.918 196.946 163.433 198.194C163.948 199.442 165.372 200.035 166.615 199.518Z" fill="#0AE874"/>
<path d="M176.394 197.836C176.704 196.521 175.893 195.203 174.584 194.893C173.274 194.582 171.962 195.396 171.653 196.711C171.344 198.026 172.155 199.344 173.464 199.654C174.773 199.965 176.085 199.15 176.394 197.836Z" fill="#0AE874"/>
<path d="M184.094 198.985C185.045 198.03 185.045 196.481 184.094 195.525C183.142 194.57 181.6 194.57 180.649 195.525C179.698 196.481 179.698 198.03 180.649 198.985C181.6 199.94 183.142 199.94 184.094 198.985Z" fill="#0AE874"/>
<path d="M192.44 198.986C193.392 198.031 193.392 196.482 192.44 195.527C191.489 194.571 189.947 194.571 188.996 195.527C188.044 196.482 188.044 198.031 188.996 198.986C189.947 199.942 191.489 199.942 192.44 198.986Z" fill="#0AE874"/>
<path d="M200.008 199.517C201.251 199 201.842 197.569 201.327 196.321C200.812 195.072 199.387 194.48 198.144 194.997C196.901 195.514 196.311 196.945 196.826 198.193C197.341 199.441 198.766 200.034 200.008 199.517Z" fill="#0AE874"/>
<path d="M190.064 140.032C200.499 129.553 200.499 112.563 190.064 102.083C179.629 91.604 162.711 91.604 152.276 102.083C141.841 112.563 141.841 129.553 152.276 140.032C162.711 150.512 179.629 150.512 190.064 140.032Z" fill="white"/>
<path d="M171.211 119.978C173.82 119.978 176.228 118.701 177.765 116.753C178.902 115.342 179.571 113.528 179.571 111.514C179.571 106.88 175.825 103.05 171.208 103.05C166.526 103.05 162.78 106.88 162.78 111.514C162.78 113.531 163.449 115.344 164.586 116.753C166.129 118.701 168.534 119.978 171.211 119.978Z" fill="#1D9B5E"/>
<path d="M186.021 135.06C186.021 140.401 156.319 140.401 156.319 135.06L156.328 128.836C157.5 120.325 183.607 119.97 186.026 128.836L186.021 135.06Z" fill="#1D9B5E"/>
<path d="M118.782 195.36V194.989C118.782 193.481 117.562 192.256 116.061 192.256C114.559 192.256 113.34 193.483 113.34 194.989V195.36H112.926V200.286C112.926 201.136 119.212 201.136 119.212 200.286V195.36H118.782ZM114.31 194.989C114.31 194.042 114.891 193.184 116.061 193.184C117.231 193.184 117.831 193.987 117.831 194.989V195.36H114.31V194.989ZM116.524 197.842V199.265C116.524 199.521 116.305 199.702 116.05 199.702C115.795 199.702 115.614 199.521 115.614 199.265V197.842C115.359 197.696 115.179 197.44 115.179 197.113C115.179 196.64 115.579 196.238 116.05 196.238C116.524 196.238 116.921 196.64 116.921 197.113C116.921 197.44 116.74 197.694 116.524 197.842Z" fill="#4D4D4D"/>
<path d="M116.066 173.768C116.617 173.768 117.124 173.498 117.45 173.088C117.691 172.791 117.831 172.408 117.831 171.982C117.831 171.005 117.039 170.196 116.066 170.196C115.077 170.196 114.288 171.005 114.288 171.982C114.288 172.408 114.428 172.791 114.669 173.088C114.995 173.498 115.502 173.768 116.066 173.768Z" fill="#4D4D4D"/>
<path d="M119.193 176.951C119.193 178.08 112.893 178.08 112.893 176.951L112.926 175.639C113.173 173.842 118.683 173.768 119.193 175.639V176.951Z" fill="#4D4D4D"/>
<path d="M156.783 176.31H131.309C130.194 176.31 129.279 175.394 129.279 174.271C129.279 173.151 130.191 172.232 131.309 172.232H156.783C157.898 172.232 158.813 173.149 158.813 174.271C158.81 175.391 157.898 176.31 156.783 176.31Z" fill="#0AE874"/>
<path d="M190.378 176.31H164.904C163.789 176.31 162.874 175.394 162.874 174.271C162.874 173.151 163.786 172.232 164.904 172.232H190.378C191.493 172.232 192.408 173.149 192.408 174.271C192.405 175.391 191.493 176.31 190.378 176.31Z" fill="#0AE874"/>
<path d="M136.876 304.428V355.031C136.876 360.655 205.39 360.655 205.39 355.031V304.428H136.876Z" fill="white"/>
<path d="M179.358 325.517C180.431 320.951 177.616 316.376 173.07 315.298C168.524 314.22 163.968 317.047 162.894 321.613C161.821 326.178 164.636 330.754 169.182 331.832C173.729 332.91 178.284 330.083 179.358 325.517Z" fill="#1D9B5E"/>
<path d="M171.135 349.123C169.219 349.123 167.668 347.563 167.668 345.642V326.158H174.603V345.642C174.601 347.566 173.05 349.123 171.135 349.123Z" fill="#1D9B5E"/>
<path d="M199.387 300.823H192.452V297.417C192.452 285.612 182.889 276.006 171.135 276.006C159.38 276.006 149.815 285.609 149.815 297.417V300.823H142.88V297.417C142.88 281.771 155.555 269.044 171.132 269.044C186.709 269.044 199.384 281.773 199.384 297.417V300.823H199.387Z" fill="white"/>
<path d="M228.428 243.404C228.428 243.135 228.431 243.016 228.431 242.991C228.431 243.038 228.428 243.404 228.428 243.404Z" fill="#D9FFFF"/>
<path d="M228.428 243.404C228.428 243.135 228.431 243.016 228.431 242.991C228.431 243.038 228.428 243.404 228.428 243.404Z" fill="#D9FFFF"/>
<path d="M387.997 244.12C387.997 244.12 388 243.756 388 243.707C388 243.732 388 243.85 387.997 244.12Z" fill="#D9FFFF"/>
<path d="M387.997 244.12C387.997 244.12 388 243.756 388 243.707C388 243.732 388 243.85 387.997 244.12Z" fill="#D9FFFF"/>
<path d="M308.51 205.748C290.845 224.748 262.662 240.322 232.5 246.957C232.491 248.979 232.442 260.187 232.212 311.846C231.905 380.759 297.21 414.434 307.351 419.602C317.174 415.061 383.304 381.439 383.611 312.526C383.841 260.866 383.89 249.659 383.898 247.636C353.797 240.73 326.002 224.907 308.51 205.748Z" fill="white"/>
<path d="M308.351 213.221C290.141 229.995 264.914 243.181 237.174 250.369L236.9 311.835C236.774 339.96 247.901 365.402 269.969 387.462C284.469 401.955 299.714 410.945 307.452 414.984C307.784 414.814 308.151 414.624 308.51 414.437V213.364C308.455 213.317 308.4 213.271 308.351 213.221Z" fill="#0AE874"/>
<path d="M308.51 213.364V414.434C316.554 410.232 331.175 401.545 345.179 387.798C367.442 365.939 378.796 340.599 378.919 312.471L379.193 251.004C351.596 243.591 326.555 230.235 308.51 213.364Z" fill="#1D9B5E"/>
<path d="M364.091 274.974C342.971 278.246 314.214 297.587 296.07 320.847C293.525 309.879 282.102 299.868 276.126 297.678L258.017 315.957C269.322 321.075 281.68 335.571 283.315 350.414L301.405 353.229C309.03 338.1 328.728 301.91 367.913 282.453C367.159 279.492 364.395 275.395 364.091 274.974Z" fill="white"/>
</g>
<defs>
<clipPath id="clip0_9_7682">
<rect width="388" height="423" fill="white"/>
</clipPath>
</defs>
</svg>
