<svg width="34" height="34" viewBox="0 0 34 34" fill="none" xmlns="http://www.w3.org/2000/svg">
<path d="M11.3337 15.5834C12.8985 15.5834 14.167 14.3148 14.167 12.75C14.167 11.1852 12.8985 9.91669 11.3337 9.91669C9.76885 9.91669 8.50033 11.1852 8.50033 12.75C8.50033 14.3148 9.76885 15.5834 11.3337 15.5834Z" fill="#1D9B5E"/>
<path d="M17.0003 18.4167L5.66699 29.75H28.3337L17.0003 18.4167Z" fill="#1D9B5E"/>
<path d="M31.167 21.25L26.5021 16.5851C25.9488 16.0318 25.0518 16.0318 24.4986 16.5851L19.8337 21.25L28.1304 29.5468C28.3937 29.4825 28.6282 29.398 28.8465 29.2868C29.6461 28.8793 30.2963 28.2292 30.7038 27.4295C31.167 26.5204 31.167 25.3302 31.167 22.95V21.25Z" fill="#1D9B5E"/>
<path d="M6.05181 29.3645L15.3969 20.0194C15.9579 19.4584 16.2384 19.1779 16.5619 19.0728C16.8464 18.9804 17.1529 18.9804 17.4374 19.0728C17.7609 19.1779 18.0414 19.4584 18.6024 20.0194L27.8852 29.3022M19.833 21.25L23.8969 17.1861C24.4579 16.6251 24.7384 16.3446 25.0619 16.2395C25.3464 16.147 25.6529 16.147 25.9374 16.2395C26.2609 16.3446 26.5414 16.6251 27.1024 17.1861L31.1663 21.25M14.1663 12.75C14.1663 14.3148 12.8978 15.5833 11.333 15.5833C9.7682 15.5833 8.49967 14.3148 8.49967 12.75C8.49967 11.1852 9.7682 9.91667 11.333 9.91667C12.8978 9.91667 14.1663 11.1852 14.1663 12.75ZM9.63301 29.75H24.3663C26.7466 29.75 27.9367 29.75 28.8458 29.2868C29.6455 28.8793 30.2957 28.2291 30.7031 27.4295C31.1663 26.5203 31.1663 25.3302 31.1663 22.95V11.05C31.1663 8.66978 31.1663 7.47967 30.7031 6.57054C30.2957 5.77085 29.6455 5.12068 28.8458 4.71322C27.9367 4.25 26.7466 4.25 24.3663 4.25H9.63301C7.25278 4.25 6.06267 4.25 5.15355 4.71322C4.35386 5.12068 3.70369 5.77085 3.29623 6.57054C2.83301 7.47967 2.83301 8.66978 2.83301 11.05V22.95C2.83301 25.3302 2.83301 26.5203 3.29623 27.4295C3.70369 28.2291 4.35386 28.8793 5.15355 29.2868C6.06267 29.75 7.25278 29.75 9.63301 29.75Z" stroke="white" stroke-linecap="round" stroke-linejoin="round"/>
</svg>
