<svg width="24" height="27" viewBox="0 0 24 27" fill="none" xmlns="http://www.w3.org/2000/svg">
<path d="M0.5 18.8143C0.5 16.4104 0.5 15.2084 0.967846 14.2902C1.37937 13.4825 2.03603 12.8258 2.8437 12.4143C3.7619 11.9465 4.96389 11.9465 7.36787 11.9465H16.525C18.929 11.9465 20.131 11.9465 21.0492 12.4143C21.8569 12.8258 22.5135 13.4825 22.9251 14.2902C23.3929 15.2084 23.3929 16.4104 23.3929 18.8143V19.3867C23.3929 21.7906 23.3929 22.9926 22.9251 23.9108C22.5135 24.7185 21.8569 25.3752 21.0492 25.7867C20.131 26.2545 18.929 26.2545 16.525 26.2545H7.36787C4.96389 26.2545 3.7619 26.2545 2.8437 25.7867C2.03603 25.3752 1.37937 24.7185 0.967846 23.9108C0.5 22.9926 0.5 21.7906 0.5 19.3867V18.8143Z" fill="#1D9B5E"/>
<path d="M4.79242 11.9465V7.65403C4.79242 3.70297 7.99539 0.5 11.9465 0.5C15.4075 0.5 18.2945 2.95778 18.9574 6.22323M7.36787 26.2545H16.525C18.929 26.2545 20.131 26.2545 21.0492 25.7867C21.8569 25.3751 22.5135 24.7185 22.9251 23.9108C23.3929 22.9926 23.3929 21.7906 23.3929 19.3866V18.8143C23.3929 16.4103 23.3929 15.2084 22.9251 14.2902C22.5135 13.4825 21.8569 12.8258 21.0492 12.4143C20.131 11.9465 18.929 11.9465 16.525 11.9465H7.36787C4.96389 11.9465 3.7619 11.9465 2.8437 12.4143C2.03603 12.8258 1.37937 13.4825 0.967846 14.2902C0.5 15.2084 0.5 16.4103 0.5 18.8143V19.3866C0.5 21.7906 0.5 22.9926 0.967846 23.9108C1.37937 24.7185 2.03603 25.3751 2.8437 25.7867C3.7619 26.2545 4.96389 26.2545 7.36787 26.2545Z" stroke="white" stroke-linecap="round" stroke-linejoin="round"/>
</svg>
