<svg width="33" height="27" viewBox="0 0 33 27" fill="none" xmlns="http://www.w3.org/2000/svg">
<path d="M19.4361 14.4447C18.3783 15.1852 17.8493 15.5555 17.274 15.6989C16.7658 15.8256 16.2342 15.8256 15.726 15.6989C15.1507 15.5555 14.6217 15.1852 13.5639 14.4447L0.5 5.3C0.5 2.64903 2.64903 0.5 5.3 0.5H27.7C30.351 0.5 32.5 2.64903 32.5 5.3L19.4361 14.4447Z" fill="#1D9B5E" stroke="white" stroke-linecap="round" stroke-linejoin="round"/>
<path d="M0.5 5.3L13.5639 14.4447C14.6217 15.1852 15.1507 15.5555 15.726 15.6989C16.2342 15.8256 16.7658 15.8256 17.274 15.6989C17.8493 15.5555 18.3783 15.1852 19.4361 14.4447L32.5 5.3M8.18 26.1H24.82C27.5083 26.1 28.8524 26.1 29.8792 25.5768C30.7823 25.1166 31.5166 24.3823 31.9768 23.4792C32.5 22.4524 32.5 21.1083 32.5 18.42V8.18C32.5 5.49175 32.5 4.14762 31.9768 3.12085C31.5166 2.21767 30.7823 1.48336 29.8792 1.02317C28.8524 0.5 27.5083 0.5 24.82 0.5H8.18C5.49175 0.5 4.14762 0.5 3.12085 1.02317C2.21767 1.48336 1.48336 2.21767 1.02317 3.12085C0.5 4.14762 0.5 5.49175 0.5 8.18V18.42C0.5 21.1083 0.5 22.4524 1.02317 23.4792C1.48336 24.3823 2.21767 25.1166 3.12085 25.5768C4.14762 26.1 5.49175 26.1 8.18 26.1Z" stroke="white" stroke-linecap="round" stroke-linejoin="round"/>
</svg>
