<svg width="31" height="30" viewBox="0 0 31 30" fill="none" xmlns="http://www.w3.org/2000/svg">
<path opacity="0.12" d="M23.0696 11.5104C22.564 9.62329 21.2141 8.04529 19.3169 7.12349C17.4198 6.20168 15.1307 6.01158 12.9533 6.59501C10.776 7.17843 8.88864 8.48759 7.70654 10.2345C6.52445 11.9814 6.14442 14.0229 6.65005 15.91C7.48664 19.0322 7.32419 21.523 6.79588 23.4158C6.19374 25.573 5.89268 26.6516 5.97401 26.8682C6.06707 27.116 6.13438 27.184 6.38119 27.2796C6.59692 27.3632 7.5032 27.1204 9.31576 26.6347L26.1234 22.1311C27.936 21.6454 28.8423 21.4026 28.9873 21.2223C29.1532 21.0161 29.1775 20.9235 29.1342 20.6624C29.0963 20.4342 28.2963 19.6506 26.6962 18.0835C25.2923 16.7085 23.9062 14.6325 23.0696 11.5104Z" fill="black"/>
<path d="M20.4562 23.6493C21.0637 25.9164 19.7183 28.2467 17.4512 28.8541C15.1842 29.4616 12.8539 28.1162 12.2464 25.8491M1.20639 14.5812C0.65465 12.6006 1.22842 10.4593 2.69655 9.01989M15.4988 6.2625C15.9297 5.48721 16.0717 4.55016 15.824 3.62571C15.3178 1.73648 13.3759 0.615333 11.4867 1.12155C9.59743 1.62777 8.47628 3.56966 8.9825 5.45888C9.2302 6.38333 9.82167 7.12387 10.5825 7.57982M27.076 7.64953C26.5635 5.6584 24.9959 4.09083 23.0048 3.57834M23.0694 11.5101C22.5638 9.62302 21.2139 8.04502 19.3167 7.12321C17.4195 6.20141 15.1305 6.01131 12.9531 6.59473C10.7757 7.17816 8.88841 8.48732 7.70631 10.2342C6.52422 11.9811 6.14418 14.0226 6.64982 15.9097C7.48641 19.0319 7.32396 21.5227 6.79565 23.4155C6.19351 25.5727 5.89244 26.6513 5.97378 26.8679C6.06684 27.1157 6.13415 27.1837 6.38096 27.2793C6.59669 27.3629 7.50297 27.1201 9.31553 26.6344L26.1232 22.1308C27.9357 21.6451 28.842 21.4023 28.9871 21.2221C29.153 21.0158 29.1773 20.9233 29.134 20.6621C29.0961 20.4339 28.2961 19.6503 26.696 18.0832C25.2921 16.7082 23.906 14.6323 23.0694 11.5101Z" stroke="black" stroke-width="2" stroke-linecap="round" stroke-linejoin="round"/>
</svg>
