<svg width="27" height="27" viewBox="0 0 27 27" fill="none" xmlns="http://www.w3.org/2000/svg">
<path d="M7.52952 10.6282C8.42714 12.4978 9.65077 14.25 11.2004 15.7996C12.7501 17.3493 14.5023 18.5729 16.3718 19.4705C16.5326 19.5477 16.6131 19.5863 16.7148 19.616C17.0764 19.7214 17.5203 19.6457 17.8266 19.4264C17.9127 19.3647 17.9864 19.291 18.1339 19.1436C18.5847 18.6927 18.8102 18.4673 19.0369 18.3199C19.8918 17.764 20.9939 17.764 21.8489 18.3199C22.0755 18.4673 22.301 18.6927 22.7519 19.1436L23.0032 19.3949C23.6886 20.0803 24.0313 20.423 24.2174 20.791C24.5877 21.523 24.5877 22.3874 24.2174 23.1194C24.0313 23.4875 23.6886 23.8302 23.0032 24.5156L22.7999 24.7189C22.1168 25.4019 21.7753 25.7434 21.311 26.0043C20.7958 26.2937 19.9955 26.5018 19.4046 26.5C18.872 26.4985 18.508 26.3951 17.7801 26.1885C13.8679 25.0782 10.1764 22.9831 7.09668 19.9034C4.01695 16.8236 1.9219 13.1321 0.81152 9.21999C0.604904 8.49203 0.501595 8.12805 0.500011 7.59548C0.498252 7.00452 0.706358 6.20429 0.995789 5.68905C1.25662 5.22473 1.59815 4.8832 2.28119 4.20016L2.48449 3.99686C3.16988 3.31147 3.51258 2.96877 3.88063 2.78262C4.6126 2.41239 5.47703 2.41239 6.209 2.78262C6.57705 2.96877 6.91975 3.31147 7.60514 3.99686L7.85646 4.24818C8.30734 4.69906 8.53278 4.9245 8.68017 5.1512C9.23601 6.00611 9.23602 7.10825 8.68017 7.96317C8.53278 8.18987 8.30734 8.41531 7.85646 8.86619C7.70903 9.01361 7.63532 9.08733 7.57362 9.17349C7.35436 9.4797 7.27865 9.92369 7.38405 10.2853C7.41371 10.387 7.45231 10.4674 7.52952 10.6282Z" fill="#1D9B5E"/>
<path d="M16.1309 5.65879C17.3906 5.90455 18.5483 6.52062 19.4558 7.42814C20.3633 8.33566 20.9794 9.49335 21.2251 10.753M16.1309 0.500061C18.748 0.790802 21.1885 1.96278 23.0516 3.82358C24.9148 5.68437 26.0898 8.12338 26.3839 10.7401M11.2004 15.7996C9.65077 14.25 8.42714 12.4978 7.52952 10.6282C7.45231 10.4674 7.41371 10.387 7.38405 10.2853C7.27865 9.9237 7.35436 9.47971 7.57362 9.1735C7.63532 9.08734 7.70903 9.01362 7.85646 8.8662C8.30734 8.41532 8.53278 8.18988 8.68017 7.96318C9.23602 7.10826 9.23602 6.00612 8.68017 5.15121C8.53278 4.92451 8.30734 4.69907 7.85646 4.24819L7.60514 3.99687C6.91975 3.31148 6.57705 2.96878 6.209 2.78262C5.47703 2.4124 4.6126 2.4124 3.88063 2.78263C3.51258 2.96878 3.16988 3.31148 2.48449 3.99687L2.28119 4.20017C1.59815 4.88321 1.25662 5.22474 0.995789 5.68906C0.706358 6.2043 0.498252 7.00453 0.500011 7.59549C0.501595 8.12806 0.604904 8.49204 0.81152 9.22C1.9219 13.1321 4.01695 16.8236 7.09668 19.9034C10.1764 22.9831 13.8679 25.0782 17.7801 26.1885C18.508 26.3952 18.872 26.4985 19.4046 26.5C19.9955 26.5018 20.7958 26.2937 21.311 26.0043C21.7753 25.7434 22.1168 25.4019 22.7999 24.7189L23.0032 24.5156C23.6886 23.8302 24.0313 23.4875 24.2174 23.1194C24.5877 22.3875 24.5877 21.523 24.2174 20.7911C24.0313 20.423 23.6886 20.0803 23.0032 19.3949L22.7519 19.1436C22.301 18.6927 22.0755 18.4673 21.8489 18.3199C20.9939 17.764 19.8918 17.764 19.0369 18.3199C18.8102 18.4673 18.5847 18.6927 18.1339 19.1436C17.9864 19.291 17.9127 19.3647 17.8266 19.4264C17.5203 19.6457 17.0764 19.7214 16.7148 19.616C16.6131 19.5864 16.5326 19.5477 16.3718 19.4705C14.5023 18.5729 12.7501 17.3493 11.2004 15.7996Z" stroke="white" stroke-linecap="round" stroke-linejoin="round"/>
</svg>
