<svg width="22" height="22" viewBox="0 0 22 22" fill="none" xmlns="http://www.w3.org/2000/svg">
<path d="M6.43158 8.32584C7.12516 9.7704 8.07064 11.1243 9.26803 12.3217C10.4654 13.5191 11.8193 14.4646 13.2639 15.1581C13.3881 15.2178 13.4503 15.2476 13.5289 15.2705C13.8083 15.352 14.1513 15.2935 14.3879 15.1241C14.4545 15.0764 14.5115 15.0194 14.6254 14.9055C14.9738 14.5571 15.148 14.3829 15.3231 14.2691C15.9837 13.8396 16.8353 13.8396 17.4959 14.2691C17.671 14.3829 17.8452 14.5571 18.1936 14.9055L18.3878 15.0997C18.9174 15.6293 19.1822 15.8941 19.326 16.1785C19.6121 16.7441 19.6121 17.412 19.326 17.9776C19.1822 18.262 18.9174 18.5268 18.3878 19.0563L18.2307 19.2134C17.7029 19.7412 17.4391 20.0051 17.0803 20.2066C16.6822 20.4303 16.0638 20.5911 15.6072 20.5897C15.1957 20.5885 14.9145 20.5087 14.352 20.349C11.3292 19.491 8.47679 17.8722 6.09714 15.4926C3.71748 13.1129 2.09867 10.2605 1.24071 7.23773C1.08106 6.67525 1.00123 6.39401 1.00001 5.9825C0.99865 5.52588 1.15945 4.90755 1.38309 4.50944C1.58463 4.15066 1.84852 3.88677 2.37629 3.359L2.53338 3.20191C3.06297 2.67232 3.32776 2.40753 3.61215 2.26369C4.17773 1.97762 4.84566 1.97762 5.41124 2.26369C5.69563 2.40753 5.96042 2.67232 6.49001 3.20191L6.6842 3.3961C7.03259 3.74449 7.20678 3.91868 7.32067 4.09385C7.75016 4.75443 7.75016 5.60603 7.32067 6.26661C7.20678 6.44177 7.03259 6.61596 6.6842 6.96435C6.57029 7.07827 6.51333 7.13522 6.46566 7.2018C6.29624 7.4384 6.23774 7.78146 6.31918 8.06084C6.3421 8.13945 6.37193 8.20158 6.43158 8.32584Z" fill="#E6FFF3" stroke="#85CCAA" stroke-width="2" stroke-linecap="round" stroke-linejoin="round"/>
<path d="M6.43149 8.32591C7.12507 9.77048 8.07055 11.1244 9.26793 12.3218C10.4653 13.5192 11.8192 14.4646 13.2638 15.1582C13.388 15.2179 13.4502 15.2477 13.5288 15.2706C13.8082 15.3521 14.1512 15.2936 14.3878 15.1241C14.4544 15.0765 14.5114 15.0195 14.6253 14.9056C14.9737 14.5572 15.1479 14.383 15.323 14.2691C15.9836 13.8396 16.8352 13.8396 17.4958 14.2691C17.6709 14.383 17.8451 14.5572 18.1935 14.9056L18.3877 15.0998C18.9173 15.6294 19.1821 15.8942 19.3259 16.1786C19.612 16.7441 19.612 17.4121 19.3259 17.9776C19.1821 18.262 18.9173 18.5268 18.3877 19.0564L18.2306 19.2135C17.7029 19.7413 17.439 20.0052 17.0802 20.2067C16.6821 20.4303 16.0638 20.5911 15.6071 20.5898C15.1956 20.5886 14.9144 20.5087 14.3519 20.3491C11.3291 19.4911 8.4767 17.8723 6.09705 15.4927C3.71739 13.113 2.09858 10.2606 1.24061 7.2378C1.08097 6.67532 1.00114 6.39408 0.999917 5.98258C0.998558 5.52595 1.15936 4.90762 1.383 4.50951C1.58454 4.15073 1.84843 3.88684 2.3762 3.35907L2.53329 3.20198C3.06288 2.67239 3.32767 2.4076 3.61206 2.26376C4.17764 1.97769 4.84557 1.97769 5.41115 2.26376C5.69554 2.4076 5.96033 2.67239 6.48992 3.20198L6.68411 3.39617C7.0325 3.74456 7.20669 3.91875 7.32058 4.09392C7.75007 4.7545 7.75007 5.6061 7.32058 6.26668C7.20669 6.44184 7.0325 6.61604 6.68411 6.96443C6.5702 7.07834 6.51324 7.1353 6.46557 7.20187C6.29615 7.43848 6.23765 7.78154 6.31909 8.06091C6.34201 8.13953 6.37184 8.20166 6.43149 8.32591Z" fill="#E6FFF3"/>
<path d="M13.0776 4.48612C14.051 4.67602 14.9455 5.15204 15.6467 5.85327C16.3479 6.55449 16.824 7.44901 17.0139 8.42234M13.0776 0.500061C15.0998 0.724711 16.9855 1.63028 18.4252 3.06808C19.8648 4.50589 20.7727 6.39046 20.9999 8.41238M9.26793 12.3218C8.07055 11.1244 7.12507 9.77048 6.43149 8.32591C6.37184 8.20166 6.34201 8.13953 6.31909 8.06091C6.23765 7.78154 6.29615 7.43848 6.46557 7.20187C6.51324 7.1353 6.5702 7.07834 6.68411 6.96443C7.0325 6.61604 7.20669 6.44184 7.32058 6.26668C7.75007 5.6061 7.75007 4.7545 7.32058 4.09392C7.20669 3.91875 7.0325 3.74456 6.68411 3.39617L6.48992 3.20198C5.96033 2.67239 5.69554 2.4076 5.41115 2.26376C4.84557 1.97769 4.17764 1.97769 3.61206 2.26376C3.32767 2.4076 3.06288 2.67239 2.53329 3.20198L2.3762 3.35907C1.84843 3.88684 1.58454 4.15073 1.383 4.50951C1.15936 4.90762 0.998558 5.52595 0.999917 5.98258C1.00114 6.39408 1.08097 6.67532 1.24061 7.2378C2.09858 10.2606 3.71739 13.113 6.09705 15.4927C8.4767 17.8723 11.3291 19.4911 14.3519 20.3491C14.9144 20.5087 15.1956 20.5886 15.6071 20.5898C16.0638 20.5911 16.6821 20.4303 17.0802 20.2067C17.439 20.0052 17.7029 19.7413 18.2306 19.2135L18.3877 19.0564C18.9173 18.5268 19.1821 18.262 19.3259 17.9776C19.612 17.4121 19.612 16.7441 19.3259 16.1786C19.1821 15.8942 18.9173 15.6294 18.3877 15.0998L18.1935 14.9056C17.8451 14.5572 17.671 14.383 17.4958 14.2691C16.8352 13.8396 15.9836 13.8396 15.323 14.2691C15.1479 14.383 14.9737 14.5572 14.6253 14.9056C14.5114 15.0195 14.4544 15.0765 14.3878 15.1241C14.1512 15.2936 13.8082 15.3521 13.5288 15.2706C13.4502 15.2477 13.388 15.2179 13.2638 15.1582C11.8192 14.4646 10.4653 13.5192 9.26793 12.3218Z" stroke="#85CCAA" stroke-linecap="round" stroke-linejoin="round"/>
</svg>
