<svg width="33" height="33" viewBox="0 0 33 33" fill="none" xmlns="http://www.w3.org/2000/svg">
<path fill-rule="evenodd" clip-rule="evenodd" d="M16.0487 1.33691C7.92416 1.33691 1.33789 7.92318 1.33789 16.0478C1.33789 24.1723 7.92416 30.7586 16.0487 30.7586C24.1733 30.7586 30.7596 24.1723 30.7596 16.0478C30.7596 7.92318 24.1733 1.33691 16.0487 1.33691ZM16.0487 9.36101C16.7873 9.36101 17.3861 9.95976 17.3861 10.6984V14.7104H21.3981C22.1367 14.7104 22.7355 15.3092 22.7355 16.0478C22.7355 16.7864 22.1367 17.3851 21.3981 17.3851H17.3861V21.3972C17.3861 22.1358 16.7873 22.7345 16.0487 22.7345C15.3101 22.7345 14.7114 22.1358 14.7114 21.3972V17.3851H10.6993C9.96074 17.3851 9.36199 16.7864 9.36199 16.0478C9.36199 15.3092 9.96074 14.7104 10.6993 14.7104H14.7114V10.6984C14.7114 9.95976 15.3101 9.36101 16.0487 9.36101Z" fill="white"/>
</svg>
