<svg width="20" height="20" viewBox="0 0 20 20" fill="none" xmlns="http://www.w3.org/2000/svg">
<path opacity="0.12" d="M8.75 16.75C13.1683 16.75 16.75 13.1683 16.75 8.75C16.75 4.33172 13.1683 0.75 8.75 0.75C4.33172 0.75 0.75 4.33172 0.75 8.75C0.75 13.1683 4.33172 16.75 8.75 16.75Z" fill="#E6FFF3" stroke="#85CCAA" stroke-width="1.5" stroke-linecap="round" stroke-linejoin="round"/>
<path d="M8.75 16.75C13.1683 16.75 16.75 13.1683 16.75 8.75C16.75 4.33172 13.1683 0.75 8.75 0.75C4.33172 0.75 0.75 4.33172 0.75 8.75C0.75 13.1683 4.33172 16.75 8.75 16.75Z" fill="#E6FFF3"/>
<path d="M18.75 18.75L14.4 14.4M8.75 3.75C11.5114 3.75 13.75 5.98858 13.75 8.75M16.75 8.75C16.75 13.1683 13.1683 16.75 8.75 16.75C4.33172 16.75 0.75 13.1683 0.75 8.75C0.75 4.33172 4.33172 0.75 8.75 0.75C13.1683 0.75 16.75 4.33172 16.75 8.75Z" stroke="#85CCAA" stroke-width="1.5" stroke-linecap="round" stroke-linejoin="round"/>
</svg>
