<svg width="42" height="42" viewBox="0 0 42 42" fill="none" xmlns="http://www.w3.org/2000/svg">
<path d="M7.66667 41.0001H34.3333C36.8256 41.0001 38.0718 41.0001 39 40.4642C39.6081 40.1131 40.113 39.6081 40.4641 39.0001C41 38.0718 41 36.8257 41 34.3334C41 31.8411 41 30.5949 40.4641 29.6667C40.113 29.0586 39.6081 28.5537 39 28.2026C38.0718 27.6667 36.8256 27.6667 34.3333 27.6667H7.66667C5.17436 27.6667 3.9282 27.6667 3 28.2026C2.39192 28.5537 1.88697 29.0586 1.5359 29.6667C1 30.5949 1 31.8411 1 34.3334C1 36.8257 1 38.0718 1.5359 39.0001C1.88697 39.6081 2.39192 40.1131 3 40.4642C3.9282 41.0001 5.17436 41.0001 7.66667 41.0001Z" fill="#E6FFF3"/>
<path d="M41 27.6667V30.3333C41 34.067 41 35.9339 40.2734 37.3599C39.6342 38.6144 38.6144 39.6342 37.3599 40.2734C35.9339 41 34.067 41 30.3333 41H11.6667C7.93298 41 6.06614 41 4.64006 40.2734C3.38565 39.6342 2.36578 38.6144 1.72662 37.3599C1 35.9339 1 34.067 1 30.3333V27.6667M32.1111 12.1111L21 1M21 1L9.88889 12.1111M21 1V27.6667" stroke="#85CCAA" stroke-width="2" stroke-linecap="round" stroke-linejoin="round"/>
</svg>
