<svg width="32" height="32" viewBox="0 0 32 32" fill="none" xmlns="http://www.w3.org/2000/svg">
<path d="M8 28H24C26.2091 28 28 26.2091 28 24C28 21.7909 26.2091 20 24 20H8C5.79086 20 4 21.7909 4 24C4 26.2091 5.79086 28 8 28Z" fill="#1D9B5E"/>
<path d="M28 20V21.6C28 23.8402 28 24.9603 27.564 25.816C27.1805 26.5686 26.5686 27.1805 25.816 27.564C24.9603 28 23.8402 28 21.6 28H10.4C8.15979 28 7.03969 28 6.18404 27.564C5.43139 27.1805 4.81947 26.5686 4.43597 25.816C4 24.9603 4 23.8402 4 21.6V20M22.6667 10.6667L16 4M16 4L9.33333 10.6667M16 4V20" stroke="white" stroke-linecap="round" stroke-linejoin="round"/>
</svg>
