<svg width="21" height="23" viewBox="0 0 21 23" fill="none" xmlns="http://www.w3.org/2000/svg">
<path d="M10.5 11.1667C13.8137 11.1667 16.5 8.77885 16.5 5.83333C16.5 2.88781 13.8137 0.5 10.5 0.5C7.18629 0.5 4.5 2.88781 4.5 5.83333C4.5 8.77885 7.18629 11.1667 10.5 11.1667Z" fill="#E6FFF3" stroke="#85CCAA" stroke-linecap="round" stroke-linejoin="round"/>
<path d="M10.5 11.1667C13.6066 11.1667 16.125 8.77885 16.125 5.83333C16.125 2.88781 13.6066 0.5 10.5 0.5C7.3934 0.5 4.875 2.88781 4.875 5.83333C4.875 8.77885 7.3934 11.1667 10.5 11.1667Z" fill="#E6FFF3"/>
<path d="M20.5 21.8333C20.5 20.1793 20.5 19.3523 20.2847 18.6794C19.7999 17.1642 18.5494 15.9786 16.9514 15.5189C16.2417 15.3148 15.3695 15.3148 13.625 15.3148H7.37501C5.63055 15.3148 4.75832 15.3148 4.04857 15.5189C2.45057 15.9786 1.20005 17.1642 0.7153 18.6794C0.5 19.3523 0.5 20.1793 0.5 21.8333M16.125 5.83333C16.125 8.77885 13.6066 11.1667 10.5 11.1667C7.3934 11.1667 4.875 8.77885 4.875 5.83333C4.875 2.88781 7.3934 0.5 10.5 0.5C13.6066 0.5 16.125 2.88781 16.125 5.83333Z" stroke="#85CCAA" stroke-linecap="round" stroke-linejoin="round"/>
</svg>
