<svg width="25" height="27" viewBox="0 0 25 27" fill="none" xmlns="http://www.w3.org/2000/svg">
<path d="M12.4998 13.3C16.4763 13.3 19.6998 10.4346 19.6998 6.9C19.6998 3.36538 16.4763 0.5 12.4998 0.5C8.52335 0.5 5.2998 3.36538 5.2998 6.9C5.2998 10.4346 8.52335 13.3 12.4998 13.3Z" fill="#1D9B5E"/>
<path d="M24.5 26.1C24.5 24.1152 24.5 23.1228 24.2416 22.3153C23.6599 20.4971 22.1593 19.0743 20.2417 18.5227C19.39 18.2778 18.3433 18.2778 16.25 18.2778H8.75001C6.65666 18.2778 5.60998 18.2778 4.75829 18.5227C2.84068 19.0743 1.34006 20.4971 0.758359 22.3153C0.5 23.1228 0.5 24.1152 0.5 26.1M19.25 6.9C19.25 10.4346 16.2279 13.3 12.5 13.3C8.77208 13.3 5.75 10.4346 5.75 6.9C5.75 3.36538 8.77208 0.5 12.5 0.5C16.2279 0.5 19.25 3.36538 19.25 6.9Z" stroke="white" stroke-linecap="round" stroke-linejoin="round"/>
</svg>
