<svg width="34" height="34" viewBox="0 0 34 34" fill="none" xmlns="http://www.w3.org/2000/svg">
<path d="M2.8335 14.45C2.8335 12.8632 2.8335 12.0698 3.14231 11.4637C3.41395 10.9306 3.8474 10.4971 4.38052 10.2255C4.98661 9.91669 5.78001 9.91669 7.36683 9.91669H26.6335C28.2203 9.91669 29.0137 9.91669 29.6198 10.2255C30.1529 10.4971 30.5864 10.9306 30.858 11.4637C31.1668 12.0698 31.1668 12.8632 31.1668 14.45V25.2167C31.1668 26.8035 31.1668 27.5969 30.858 28.203C30.5864 28.7361 30.1529 29.1696 29.6198 29.4412C29.0137 29.75 28.2203 29.75 26.6335 29.75H7.36683C5.78001 29.75 4.98661 29.75 4.38052 29.4412C3.8474 29.1696 3.41395 28.7361 3.14231 28.203C2.8335 27.5969 2.8335 26.8035 2.8335 25.2167V14.45Z" fill="#1D9B5E"/>
<path d="M22.6668 9.91667C22.6668 8.59921 22.6668 7.94048 22.522 7.40002C22.129 5.93338 20.9835 4.7878 19.5168 4.39482C18.9764 4.25 18.3176 4.25 17.0002 4.25C15.6827 4.25 15.024 4.25 14.4835 4.39482C13.0169 4.7878 11.8713 5.93338 11.4783 7.40002C11.3335 7.94048 11.3335 8.59921 11.3335 9.91667M7.36683 29.75H26.6335C28.2203 29.75 29.0137 29.75 29.6198 29.4412C30.1529 29.1695 30.5864 28.7361 30.858 28.203C31.1668 27.5969 31.1668 26.8035 31.1668 25.2167V14.45C31.1668 12.8632 31.1668 12.0698 30.858 11.4637C30.5864 10.9306 30.1529 10.4971 29.6198 10.2255C29.0137 9.91667 28.2203 9.91667 26.6335 9.91667H7.36683C5.78001 9.91667 4.98661 9.91667 4.38052 10.2255C3.8474 10.4971 3.41395 10.9306 3.14231 11.4637C2.8335 12.0698 2.8335 12.8632 2.8335 14.45V25.2167C2.8335 26.8035 2.8335 27.5969 3.14231 28.203C3.41395 28.7361 3.8474 29.1695 4.38052 29.4412C4.98661 29.75 5.78001 29.75 7.36683 29.75Z" stroke="white" stroke-linecap="round" stroke-linejoin="round"/>
</svg>
