<svg width="18" height="18" viewBox="0 0 18 18" fill="none" xmlns="http://www.w3.org/2000/svg">
<path fill-rule="evenodd" clip-rule="evenodd" d="M8.84276 0.00688952C8.94738 -0.00229651 9.05261 -0.00229651 9.15724 0.00688952C9.2776 0.0174567 9.39236 0.0431682 9.48346 0.0635799L16.1916 1.55612C16.372 1.59623 16.5513 1.6361 16.7029 1.68172C16.872 1.73263 17.0646 1.80661 17.2522 1.94191C17.5171 2.13299 17.7251 2.39262 17.8539 2.693C17.9452 2.90567 17.9755 3.10991 17.9884 3.28631C18 3.44437 18 3.62827 18 3.81326V4.87282C18 5.10017 18 5.32166 17.9847 5.50917C17.9679 5.71516 17.9283 5.95822 17.8038 6.2028C17.6312 6.5419 17.3559 6.8176 17.0172 6.99039C16.7729 7.11501 16.5301 7.15472 16.3244 7.17155C16.2844 7.17482 16.2428 7.17739 16.2 7.17941V12.6008C16.2428 12.6028 16.2844 12.6054 16.3244 12.6087C16.5301 12.6255 16.7729 12.6652 17.0172 12.7898C17.3559 12.9626 17.6312 13.2383 17.8038 13.5774C17.9283 13.822 17.9679 14.0651 17.9847 14.271C18 14.4585 18 14.6801 18 14.9074V15.6861C18 15.9134 18 16.1349 17.9847 16.3224C17.9679 16.5283 17.9283 16.7714 17.8038 17.016C17.6312 17.3551 17.3559 17.6308 17.0172 17.8036C16.7729 17.9282 16.5301 17.9679 16.3244 17.9847C16.1371 18.0001 15.9158 18 15.6887 18H2.3113C2.08415 18 1.86294 18.0001 1.6756 17.9847C1.46986 17.9679 1.2271 17.9282 0.982821 17.8036C0.64413 17.6308 0.368765 17.3551 0.196193 17.016C0.0717252 16.7714 0.0320644 16.5283 0.0152553 16.3224C-5.12687e-05 16.1348 -2.47688e-05 15.9133 2.26782e-06 15.6859L2.37511e-06 14.9075C-2.46615e-05 14.6801 -5.10541e-05 14.4586 0.0152554 14.271C0.0320646 14.0651 0.0717254 13.822 0.196193 13.5774C0.368765 13.2383 0.64413 12.9626 0.982821 12.7898C1.2271 12.6652 1.46986 12.6255 1.6756 12.6087C1.71561 12.6054 1.75717 12.6028 1.8 12.6008V7.17941C1.75717 7.17739 1.71561 7.17482 1.6756 7.17154C1.46986 7.15472 1.2271 7.11501 0.982821 6.99039C0.64413 6.8176 0.368765 6.5419 0.196193 6.2028C0.0717252 5.95822 0.0320644 5.71516 0.0152553 5.50917C-5.10994e-05 5.3216 -2.47685e-05 5.10012 2.26782e-06 4.87269L2.69697e-06 3.81325C-2.01554e-05 3.62826 -4.27929e-05 3.44437 0.0115516 3.28631C0.0244917 3.10991 0.0548496 2.90567 0.146073 2.693C0.274913 2.39262 0.482927 2.13299 0.747841 1.94191C0.935411 1.80661 1.12795 1.73263 1.29714 1.68172C1.44873 1.6361 1.62803 1.59623 1.8084 1.55612L8.51654 0.0635796C8.60764 0.0431681 8.7224 0.0174567 8.84276 0.00688952ZM3.6 7.18682V12.5934H5.85V7.18682H3.6ZM7.65 7.18682V12.5934H10.35V7.18682L7.65 7.18682ZM12.15 7.18682V12.5934H14.4V7.18682H12.15Z" fill="#1D9B5E"/>
</svg>
