<svg width="18" height="19" viewBox="0 0 18 19" fill="none" xmlns="http://www.w3.org/2000/svg">
<path fill-rule="evenodd" clip-rule="evenodd" d="M8.52958 0.0636714C8.83765 -0.0212238 9.16235 -0.0212238 9.47042 0.0636714C9.82804 0.162224 10.1291 0.402818 10.3694 0.59484C12.4424 2.25133 14.5284 3.89106 16.6105 5.53565C16.9495 5.80338 17.2481 6.03926 17.4706 6.34548C17.6659 6.61422 17.8114 6.91697 17.8999 7.23885C18.0008 7.60564 18.0004 7.99037 17.9999 8.42706C17.9976 10.6779 17.9999 12.9288 17.9999 15.1797C17.9999 15.6626 17.9999 16.0791 17.9724 16.4222C17.9433 16.7844 17.8791 17.1446 17.7056 17.4912C17.4467 18.0082 17.0337 18.4286 16.5257 18.6921C16.1851 18.8687 15.8312 18.934 15.4754 18.9636C14.7541 19.0236 14.0224 18.9913 13.2991 18.9916C13.1919 18.9917 13.0639 18.9917 12.9511 18.9823C12.8204 18.9715 12.6332 18.9436 12.4371 18.8419C12.183 18.7101 11.9765 18.4999 11.8471 18.2414C11.7472 18.0417 11.7198 17.8512 11.7091 17.7182C11.6999 17.6034 11.6999 17.4731 11.7 17.364L11.7071 12.2378C11.7078 11.7242 11.7081 11.4673 11.6101 11.2711C11.5239 11.0985 11.3862 10.9581 11.2168 10.8702C11.0241 10.7701 10.7718 10.7701 10.2671 10.7701H7.74723C7.24384 10.7701 6.99215 10.7701 6.79977 10.8698C6.63055 10.9575 6.4929 11.0974 6.40653 11.2695C6.30833 11.4651 6.30797 11.7213 6.30725 12.2337L6.30004 17.364C6.30008 17.4731 6.30013 17.6034 6.29092 17.7182C6.28024 17.8512 6.25284 18.0417 6.1529 18.2414C6.02347 18.4999 5.81695 18.7101 5.56294 18.8419C5.36679 18.9436 5.1796 18.9715 5.0489 18.9823C4.93612 18.9917 4.8081 18.9917 4.70089 18.9916C3.97759 18.9913 3.24592 19.0236 2.52457 18.9636C2.16876 18.934 1.81487 18.8687 1.47433 18.6921C0.9663 18.4286 0.553258 18.0082 0.294404 17.4912C0.120892 17.1446 0.0567081 16.7844 0.0276376 16.4222C9.46287e-05 16.0791 0.000108577 15.6626 0.00012467 15.1797C0.00012496 12.9288 0.00245301 10.6779 6.20143e-05 8.42706C-0.00040168 7.99036 -0.000810123 7.60563 0.100061 7.23885C0.188585 6.91697 0.334065 6.61422 0.529355 6.34548C0.751884 6.03926 1.05051 5.80339 1.38948 5.53566C3.47154 3.89113 5.55764 2.25129 7.63056 0.594842C7.87087 0.402819 8.17196 0.162224 8.52958 0.0636714Z" fill="#626262"/>
</svg>