<svg width="18" height="18" viewBox="0 0 18 18" fill="none" xmlns="http://www.w3.org/2000/svg">
<path fill-rule="evenodd" clip-rule="evenodd" d="M9 0C4.02944 0 0 4.02944 0 9C0 13.9706 4.02944 18 9 18C13.9706 18 18 13.9706 18 9C18 4.02944 13.9706 0 9 0ZM8.10543 5.94919C8.43859 5.75338 8.8303 5.68181 9.21118 5.74714C9.59206 5.81247 9.93753 6.01049 10.1864 6.30613C10.4353 6.60177 10.5715 6.97594 10.5709 7.36239V7.36361C10.5709 7.74744 10.2722 8.1476 9.70797 8.52374C9.45076 8.69522 9.18772 8.82732 8.98577 8.91708C8.88595 8.96144 8.80391 8.9942 8.74874 9.01522C8.72426 9.02454 8.69967 9.03357 8.67495 9.04224C8.24682 9.18546 8.01555 9.64849 8.15835 10.0769C8.30124 10.5056 8.76459 10.7372 9.19327 10.5943L9.33128 10.5444C9.41034 10.5143 9.52006 10.4703 9.65036 10.4124C9.90863 10.2976 10.2592 10.1229 10.6157 9.88528C11.2786 9.44333 12.2069 8.61646 12.2073 7.36435C12.2083 6.59163 11.9359 5.84346 11.4383 5.25231C10.9405 4.66103 10.2496 4.26499 9.48782 4.13433C8.72606 4.00367 7.94264 4.14682 7.27631 4.53842C6.60998 4.93003 6.10374 5.54482 5.84727 6.27391C5.69732 6.70018 5.92131 7.16729 6.34758 7.31724C6.77384 7.46719 7.24096 7.2432 7.39091 6.81693C7.51914 6.45239 7.77226 6.14499 8.10543 5.94919ZM9 12.2727C8.54813 12.2727 8.18181 12.639 8.18181 13.0909C8.18181 13.5427 8.54813 13.9091 9 13.9091H9.00818C9.46005 13.9091 9.82636 13.5427 9.82636 13.0909C9.82636 12.639 9.46005 12.2727 9.00818 12.2727H9Z" fill="#1D9B5E"/>
</svg>
