<svg width="18" height="18" viewBox="0 0 18 18" fill="none" xmlns="http://www.w3.org/2000/svg">
<path fill-rule="evenodd" clip-rule="evenodd" d="M9 0C4.02944 0 0 4.02944 0 9C0 13.9706 4.02944 18 9 18C13.9706 18 18 13.9706 18 9C18 4.02944 13.9706 0 9 0ZM5.72727 9C5.72727 8.86146 5.73588 8.72493 5.75259 8.59091H8.18182C8.63369 8.59091 9 8.2246 9 7.77273C9 7.32086 8.63369 6.95455 8.18182 6.95455H6.44508C7.04485 6.20635 7.96648 5.72727 9 5.72727C9.83873 5.72727 10.6021 6.04171 11.1816 6.56042C11.5183 6.86178 12.0356 6.83312 12.3369 6.49642C12.6383 6.15972 12.6096 5.64247 12.2729 5.34111C11.405 4.56426 10.2568 4.09091 9 4.09091C7.01878 4.09091 5.31168 5.26457 4.53603 6.95455H4.09091C3.63904 6.95455 3.27273 7.32086 3.27273 7.77273C3.27273 8.2246 3.63904 8.59091 4.09091 8.59091H4.10771C4.09658 8.7258 4.09091 8.86224 4.09091 9C4.09091 9.13776 4.09658 9.2742 4.10771 9.40909H4.09091C3.63904 9.40909 3.27273 9.7754 3.27273 10.2273C3.27273 10.6791 3.63904 11.0455 4.09091 11.0455H4.53603C5.31168 12.7354 7.01878 13.9091 9 13.9091C10.2568 13.9091 11.405 13.4357 12.2729 12.6589C12.6096 12.3575 12.6383 11.8403 12.3369 11.5036C12.0356 11.1669 11.5183 11.1382 11.1816 11.4396C10.6021 11.9583 9.83873 12.2727 9 12.2727C7.96648 12.2727 7.04485 11.7937 6.44508 11.0455H8.18182C8.63369 11.0455 9 10.6791 9 10.2273C9 9.7754 8.63369 9.40909 8.18182 9.40909H5.75259C5.73588 9.27507 5.72727 9.13854 5.72727 9Z" fill="#1D9B5E"/>
</svg>
    