<svg width="18" height="18" viewBox="0 0 18 18" fill="none" xmlns="http://www.w3.org/2000/svg">
<path fill-rule="evenodd" clip-rule="evenodd" d="M14.9613 12.2405C14.9131 11.9751 14.9456 11.7013 15.0545 11.4545C15.1583 11.2126 15.3305 11.0062 15.55 10.8608C15.7695 10.7154 16.0267 10.6374 16.29 10.6364H16.3636C16.7976 10.6364 17.2138 10.464 17.5207 10.1571C17.8276 9.85021 18 9.43399 18 9C18 8.56601 17.8276 8.14979 17.5207 7.84292C17.2138 7.53604 16.7976 7.36364 16.3636 7.36364H16.2245C15.9613 7.36259 15.704 7.28457 15.4845 7.1392C15.265 6.99383 15.0928 6.78745 14.9891 6.54545V6.48C14.8802 6.23322 14.8477 5.95948 14.8958 5.69406C14.9439 5.42865 15.0705 5.18374 15.2591 4.99091L15.3082 4.94182C15.4603 4.78984 15.581 4.60937 15.6634 4.41072C15.7457 4.21207 15.7881 3.99913 15.7881 3.78409C15.7881 3.56905 15.7457 3.35611 15.6634 3.15746C15.581 2.95881 15.4603 2.77834 15.3082 2.62636C15.1562 2.47422 14.9757 2.35352 14.7771 2.27117C14.5784 2.18883 14.3655 2.14644 14.1505 2.14644C13.9354 2.14644 13.7225 2.18883 13.5238 2.27117C13.3252 2.35352 13.1447 2.47422 12.9927 2.62636L12.9436 2.67545C12.7508 2.86408 12.5059 2.99061 12.2405 3.03873C11.9751 3.08686 11.7013 3.05437 11.4545 2.94545C11.2126 2.84174 11.0062 2.66953 10.8608 2.45002C10.7154 2.23051 10.6374 1.97328 10.6364 1.71V1.63636C10.6364 1.20237 10.464 0.786157 10.1571 0.47928C9.85021 0.172402 9.43399 0 9 0C8.56601 0 8.14979 0.172402 7.84292 0.47928C7.53604 0.786157 7.36364 1.20237 7.36364 1.63636V1.77545C7.36259 2.03873 7.28457 2.29596 7.1392 2.51547C6.99383 2.73498 6.78745 2.90719 6.54545 3.01091H6.48C6.23322 3.11982 5.95948 3.15231 5.69406 3.10419C5.42865 3.05606 5.18374 2.92953 4.99091 2.74091L4.94182 2.69182C4.78984 2.53967 4.60937 2.41898 4.41072 2.33663C4.21207 2.25428 3.99913 2.21189 3.78409 2.21189C3.56905 2.21189 3.35611 2.25428 3.15746 2.33663C2.95881 2.41898 2.77834 2.53967 2.62636 2.69182C2.47422 2.84379 2.35352 3.02426 2.27117 3.22292C2.18883 3.42157 2.14644 3.6345 2.14644 3.84955C2.14644 4.06459 2.18883 4.27752 2.27117 4.47617C2.35352 4.67483 2.47422 4.8553 2.62636 5.00727L2.67545 5.05636C2.86408 5.24919 2.99061 5.4941 3.03873 5.75952C3.08686 6.02493 3.05437 6.29868 2.94545 6.54545C2.85195 6.79969 2.68412 7.01992 2.46379 7.17751C2.24346 7.3351 1.98081 7.42276 1.71 7.42909H1.63636C1.20237 7.42909 0.786157 7.60149 0.47928 7.90837C0.172402 8.21525 0 8.63146 0 9.06545C0 9.49944 0.172402 9.91566 0.47928 10.2225C0.786157 10.5294 1.20237 10.7018 1.63636 10.7018H1.77545C2.03873 10.7029 2.29596 10.7809 2.51547 10.9263C2.73498 11.0716 2.90719 11.278 3.01091 11.52C3.11982 11.7668 3.15231 12.0405 3.10419 12.3059C3.05606 12.5714 2.92953 12.8163 2.74091 13.0091L2.69182 13.0582C2.53967 13.2102 2.41898 13.3906 2.33663 13.5893C2.25428 13.7879 2.21189 14.0009 2.21189 14.2159C2.21189 14.431 2.25428 14.6439 2.33663 14.8425C2.41898 15.0412 2.53967 15.2217 2.69182 15.3736C2.84379 15.5258 3.02426 15.6465 3.22292 15.7288C3.42157 15.8112 3.6345 15.8536 3.84955 15.8536C4.06459 15.8536 4.27752 15.8112 4.47617 15.7288C4.67483 15.6465 4.8553 15.5258 5.00727 15.3736L5.05636 15.3245C5.24919 15.1359 5.4941 15.0094 5.75952 14.9613C6.02493 14.9131 6.29868 14.9456 6.54545 15.0545C6.79969 15.1481 7.01992 15.3159 7.17751 15.5362C7.3351 15.7565 7.42276 16.0192 7.42909 16.29V16.3636C7.42909 16.7976 7.60149 17.2138 7.90837 17.5207C8.21525 17.8276 8.63146 18 9.06545 18C9.49944 18 9.91566 17.8276 10.2225 17.5207C10.5294 17.2138 10.7018 16.7976 10.7018 16.3636V16.2245C10.7029 15.9613 10.7809 15.704 10.9263 15.4845C11.0716 15.265 11.278 15.0928 11.52 14.9891C11.7668 14.8802 12.0405 14.8477 12.3059 14.8958C12.5714 14.9439 12.8163 15.0705 13.0091 15.2591L13.0582 15.3082C13.2102 15.4603 13.3906 15.581 13.5893 15.6634C13.7879 15.7457 14.0009 15.7881 14.2159 15.7881C14.431 15.7881 14.6439 15.7457 14.8425 15.6634C15.0412 15.581 15.2217 15.4603 15.3736 15.3082C15.5258 15.1562 15.6465 14.9757 15.7288 14.7771C15.8112 14.5784 15.8536 14.3655 15.8536 14.1505C15.8536 13.9354 15.8112 13.7225 15.7288 13.5238C15.6465 13.3252 15.5258 13.1447 15.3736 12.9927L15.3245 12.9436C15.1359 12.7508 15.0094 12.5059 14.9613 12.2405ZM11.4545 9C11.4545 10.3556 10.3556 11.4545 9 11.4545C7.64439 11.4545 6.54545 10.3556 6.54545 9C6.54545 7.64439 7.64439 6.54545 9 6.54545C10.3556 6.54545 11.4545 7.64439 11.4545 9Z" fill="#1D9B5E"/>
</svg>
