<svg width="18" height="20" viewBox="0 0 18 20" fill="none" xmlns="http://www.w3.org/2000/svg">
<path fill-rule="evenodd" clip-rule="evenodd" d="M5.7587 3.94693e-07H12.2413C13.0463 -1.16268e-05 13.7106 -2.15508e-05 14.2518 0.0441952C14.8139 0.0901204 15.3306 0.188685 15.816 0.435976C16.5686 0.819469 17.1805 1.43139 17.564 2.18404C17.8113 2.66938 17.9099 3.18608 17.9558 3.74818C18 4.28937 18 4.95372 18 5.75868V19C18 19.3761 17.7889 19.7204 17.4538 19.8911C17.1186 20.0618 16.716 20.03 16.4118 19.8087L14.2789 18.2575L12.3747 19.7809C12.0229 20.0623 11.5262 20.0738 11.1618 19.8087L9 18.2365L6.83817 19.8087C6.47378 20.0738 5.97715 20.0623 5.62531 19.7809L3.72111 18.2575L1.58817 19.8087C1.28399 20.03 0.881395 20.0618 0.546224 19.8911C0.211054 19.7204 3.94415e-07 19.3761 3.94415e-07 19V5.75869C-1.16214e-05 4.95373 -2.15396e-05 4.28936 0.0441952 3.74818C0.0901204 3.18608 0.188685 2.66938 0.435976 2.18404C0.819469 1.43139 1.43139 0.819469 2.18404 0.435976C2.66938 0.188685 3.18608 0.0901204 3.74818 0.0441952C4.28936 -2.15471e-05 4.95375 -1.16268e-05 5.7587 3.94693e-07ZM13.2071 6.70711C13.5976 6.31658 13.5976 5.68342 13.2071 5.29289C12.8166 4.90237 12.1834 4.90237 11.7929 5.29289L8 9.08579L6.70711 7.79289C6.31658 7.40237 5.68342 7.40237 5.29289 7.79289C4.90237 8.18342 4.90237 8.81658 5.29289 9.20711L7.29289 11.2071C7.68342 11.5976 8.31658 11.5976 8.70711 11.2071L13.2071 6.70711Z" fill="#1D9B5E"/>
</svg>
