<svg width="18" height="18" viewBox="0 0 18 18" fill="none" xmlns="http://www.w3.org/2000/svg">
<path fill-rule="evenodd" clip-rule="evenodd" d="M0.000206578 11.833L0.000220448 11.838V14.3339C0.000205052 14.7983 0.000191771 15.1989 0.0277341 15.5289C0.0568046 15.8772 0.120988 16.2236 0.294501 16.557C0.553356 17.0542 0.966398 17.4586 1.47443 17.7119C1.81497 17.8818 2.16886 17.9446 2.52467 17.9731C2.86176 18 3.27106 18 3.74547 18L14.2548 18C14.7292 18 15.1385 18 15.4756 17.9731C15.8314 17.9446 16.1853 17.8818 16.5258 17.7119C17.0338 17.4586 17.4469 17.0542 17.7057 16.557C17.8792 16.2236 17.9434 15.8772 17.9725 15.5289C18 15.1989 18 14.7983 18 14.3339V8.4516C18 7.98721 18 7.58658 17.9725 7.2566C17.9434 6.90832 17.8792 6.56191 17.7057 6.22857C17.4469 5.73127 17.0338 5.32696 16.5258 5.07358C16.1853 4.90373 15.8314 4.84091 15.4756 4.81245C15.1384 4.78549 14.7292 4.7855 14.2547 4.78552H13.5L13.5 2.54773C13.5001 2.2122 13.5001 1.90284 13.4766 1.65092C13.4523 1.38984 13.3943 1.06049 13.1847 0.761103C12.9091 0.367678 12.4824 0.100419 12.002 0.0203999C11.6365 -0.0404934 11.3067 0.0460617 11.0543 0.133824C10.8108 0.218511 10.5239 0.348178 10.2126 0.488809L2.09088 4.15797C1.58976 4.38356 1.14924 4.58187 0.813039 4.90349C0.518678 5.1851 0.293985 5.52885 0.156135 5.90847C-0.00130611 6.34205 -0.000647374 6.81668 0.000101919 7.3566L0.000206578 11.833ZM11.6569 1.79409C11.5005 1.84849 11.2894 1.94287 10.9338 2.10355L4.99738 4.78552L11.7001 4.78552V2.58348C11.7001 2.20004 11.6992 1.97292 11.6841 1.81111L11.6815 1.78576L11.6569 1.79409ZM13.0501 10.0713C12.3045 10.0713 11.7001 10.6629 11.7001 11.3928C11.7001 12.1226 12.3045 12.7142 13.0501 12.7142C13.7956 12.7142 14.4 12.1226 14.4 11.3928C14.4 10.6629 13.7956 10.0713 13.0501 10.0713Z" fill="#626262"/>
</svg>
